<svg xmlns="http://www.w3.org/2000/svg" xmlns:xlink="http://www.w3.org/1999/xlink" contentStyleType="text/css" height="136px" preserveAspectRatio="none" style="width:396px;height:136px;background:#FFFFFF;" version="1.1" viewBox="0 0 396 136" width="396px" zoomAndPan="magnify"><defs/><g><!--cluster it.unimi.di.prog2.h03--><g id="cluster_it.unimi.di.prog2.h03"><path d="M16.5,4 L184.96,4 A3.75,3.75 0 0 1 187.46,6.5 L194.46,26.2969 L386.5,26.2969 A2.5,2.5 0 0 1 389,28.7969 L389,100.5 A2.5,2.5 0 0 1 386.5,103 L16.5,103 A2.5,2.5 0 0 1 14,100.5 L14,6.5 A2.5,2.5 0 0 1 16.5,4 " fill="none" style="stroke:#000000;stroke-width:1.5;"/><line style="stroke:#000000;stroke-width:1.5;" x1="14" x2="194.46" y1="26.2969" y2="26.2969"/><text fill="#000000" font-family="sans-serif" font-size="14" font-weight="bold" lengthAdjust="spacing" textLength="167.46" x="18" y="18.9951">it.unimi.di.prog2.h03</text></g><!--class Palindroma--><a href="Palindroma.html" target="_top" title="Palindroma.html" xlink:actuate="onRequest" xlink:href="Palindroma.html" xlink:show="new" xlink:title="Palindroma.html" xlink:type="simple"><g id="elem_Palindroma"><rect codeLine="6" fill="#F1F1F1" height="64.2969" id="Palindroma" rx="2.5" ry="2.5" style="stroke:#181818;stroke-width:0.5;" width="163.4023" x="217.5" y="31"/><ellipse cx="256.0367" cy="47" fill="#ADD1B2" rx="11" ry="11" style="stroke:#181818;stroke-width:1.0;"/><path d="M259.0054,52.6406 Q258.4273,52.9375 257.7867,53.0781 Q257.146,53.2344 256.4429,53.2344 Q253.9429,53.2344 252.6148,51.5938 Q251.3023,49.9375 251.3023,46.8125 Q251.3023,43.6875 252.6148,42.0313 Q253.9429,40.375 256.4429,40.375 Q257.146,40.375 257.7867,40.5313 Q258.4429,40.6875 259.0054,40.9844 L259.0054,43.7031 Q258.3804,43.125 257.7867,42.8594 Q257.1929,42.5781 256.5679,42.5781 Q255.2242,42.5781 254.5367,43.6563 Q253.8492,44.7188 253.8492,46.8125 Q253.8492,48.9063 254.5367,49.9844 Q255.2242,51.0469 256.5679,51.0469 Q257.1929,51.0469 257.7867,50.7813 Q258.3804,50.5 259.0054,49.9219 L259.0054,52.6406 Z " fill="#000000"/><text fill="#000000" font-family="sans-serif" font-size="14" lengthAdjust="spacing" textLength="79.0986" x="275.267" y="51.8467">Palindroma</text><line style="stroke:#181818;stroke-width:0.5;" x1="218.5" x2="379.9023" y1="63" y2="63"/><line style="stroke:#181818;stroke-width:0.5;" x1="218.5" x2="379.9023" y1="71" y2="71"/><ellipse cx="228.5" cy="84.6484" fill="#84BE84" rx="3" ry="3" style="stroke:#038048;stroke-width:1.0;"/><text fill="#000000" font-family="sans-serif" font-size="14" lengthAdjust="spacing" text-decoration="underline" textLength="137.4023" x="237.5" y="87.9951">main(String[]): void</text></g></a><!--class SequenzeDiCaratteri--><a href="SequenzeDiCaratteri.html" target="_top" title="SequenzeDiCaratteri.html" xlink:actuate="onRequest" xlink:href="SequenzeDiCaratteri.html" xlink:show="new" xlink:title="SequenzeDiCaratteri.html" xlink:type="simple"><g id="elem_SequenzeDiCaratteri"><rect codeLine="10" fill="#F1F1F1" height="64.2969" id="SequenzeDiCaratteri" rx="2.5" ry="2.5" style="stroke:#181818;stroke-width:0.5;" width="177.3047" x="22.5" y="31"/><ellipse cx="37.5" cy="47" fill="#ADD1B2" rx="11" ry="11" style="stroke:#181818;stroke-width:1.0;"/><path d="M40.4688,52.6406 Q39.8906,52.9375 39.25,53.0781 Q38.6094,53.2344 37.9063,53.2344 Q35.4063,53.2344 34.0781,51.5938 Q32.7656,49.9375 32.7656,46.8125 Q32.7656,43.6875 34.0781,42.0313 Q35.4063,40.375 37.9063,40.375 Q38.6094,40.375 39.25,40.5313 Q39.9063,40.6875 40.4688,40.9844 L40.4688,43.7031 Q39.8438,43.125 39.25,42.8594 Q38.6563,42.5781 38.0313,42.5781 Q36.6875,42.5781 36,43.6563 Q35.3125,44.7188 35.3125,46.8125 Q35.3125,48.9063 36,49.9844 Q36.6875,51.0469 38.0313,51.0469 Q38.6563,51.0469 39.25,50.7813 Q39.8438,50.5 40.4688,49.9219 L40.4688,52.6406 Z " fill="#000000"/><text fill="#000000" font-family="sans-serif" font-size="14" lengthAdjust="spacing" textLength="145.3047" x="51.5" y="51.8467">SequenzeDiCaratteri</text><line style="stroke:#181818;stroke-width:0.5;" x1="23.5" x2="198.8047" y1="63" y2="63"/><line style="stroke:#181818;stroke-width:0.5;" x1="23.5" x2="198.8047" y1="71" y2="71"/><ellipse cx="33.5" cy="84.6484" fill="#84BE84" rx="3" ry="3" style="stroke:#038048;stroke-width:1.0;"/><text fill="#000000" font-family="sans-serif" font-size="14" lengthAdjust="spacing" text-decoration="underline" textLength="137.4023" x="42.5" y="87.9951">main(String[]): void</text></g></a><text fill="#888888" font-family="sans-serif" font-size="10" lengthAdjust="spacing" textLength="3.1787" x="188.4106" y="114.2822">&#160;</text><text fill="#888888" font-family="sans-serif" font-size="10" lengthAdjust="spacing" textLength="183.0908" x="98.4546" y="125.9229">UMLDoclet 2.2.0, PlantUML 1.2024.6</text><!--SRC=[hL31IWD13BttA-AXqA8CPRtjrHuL2gMdTGzXDcv3Pv9r9blGil_kR0KLyUWx9BoNHru80C3DaB2F207VT3J8aGm55sK2cGgd0HEQ9gZhnLKTq9-m9s1pet1arx4RalQLEsxkuV9fck43vWmx32nTqXBHDD_47Is6jYr- -85BDZJs4zn6P5djBR7qJRkkuQpSVLcdto5xUXr9tcdB3_ErHebBsX_gVyHEr-f9oa9uKPtRinoU7hVgGtbPvIgtkODTGB6Yml9CARFAQlq1]--></g></svg>