<svg xmlns="http://www.w3.org/2000/svg" xmlns:xlink="http://www.w3.org/1999/xlink" contentStyleType="text/css" height="292px" preserveAspectRatio="none" style="width:690px;height:292px;background:#FFFFFF;" version="1.1" viewBox="0 0 690 292" width="690px" zoomAndPan="magnify"><defs/><g><!--cluster it.unimi.di.prog2.h08.impl--><g id="cluster_it.unimi.di.prog2.h08.impl"><path d="M16.5,111 L224.4854,111 A3.75,3.75 0 0 1 226.9854,113.5 L233.9854,133.2969 L680.5,133.2969 A2.5,2.5 0 0 1 683,135.7969 L683,256.5 A2.5,2.5 0 0 1 680.5,259 L16.5,259 A2.5,2.5 0 0 1 14,256.5 L14,113.5 A2.5,2.5 0 0 1 16.5,111 " fill="none" style="stroke:#000000;stroke-width:1.5;"/><line style="stroke:#000000;stroke-width:1.5;" x1="14" x2="233.9854" y1="133.2969" y2="133.2969"/><text fill="#000000" font-family="sans-serif" font-size="14" font-weight="bold" lengthAdjust="spacing" textLength="206.9854" x="18" y="125.9951">it.unimi.di.prog2.h08.impl</text></g><!--cluster java.lang--><g id="cluster_java.lang"><path d="M123.5,4 L196.8721,4 A3.75,3.75 0 0 1 199.3721,6.5 L206.3721,26.2969 L547.5,26.2969 A2.5,2.5 0 0 1 550,28.7969 L550,100.5 A2.5,2.5 0 0 1 547.5,103 L123.5,103 A2.5,2.5 0 0 1 121,100.5 L121,6.5 A2.5,2.5 0 0 1 123.5,4 " fill="none" style="stroke:#000000;stroke-width:1.5;"/><line style="stroke:#000000;stroke-width:1.5;" x1="121" x2="206.3721" y1="26.2969" y2="26.2969"/><text fill="#000000" font-family="sans-serif" font-size="14" font-weight="bold" lengthAdjust="spacing" textLength="72.3721" x="125" y="18.9951">java.lang</text></g><!--class NegativeExponentException--><a href="NegativeExponentException.html" target="_top" title="NegativeExponentException.html" xlink:actuate="onRequest" xlink:href="NegativeExponentException.html" xlink:show="new" xlink:title="NegativeExponentException.html" xlink:type="simple"><g id="elem_NegativeExponentException"><rect codeLine="6" fill="#F1F1F1" height="113.1875" id="NegativeExponentException" rx="2.5" ry="2.5" style="stroke:#181818;stroke-width:0.5;" width="359.1768" x="315.5" y="138"/><ellipse cx="391.6353" cy="154" fill="#ADD1B2" rx="11" ry="11" style="stroke:#181818;stroke-width:1.0;"/><path d="M394.604,159.6406 Q394.0259,159.9375 393.3853,160.0781 Q392.7446,160.2344 392.0415,160.2344 Q389.5415,160.2344 388.2134,158.5938 Q386.9009,156.9375 386.9009,153.8125 Q386.9009,150.6875 388.2134,149.0313 Q389.5415,147.375 392.0415,147.375 Q392.7446,147.375 393.3853,147.5313 Q394.0415,147.6875 394.604,147.9844 L394.604,150.7031 Q393.979,150.125 393.3853,149.8594 Q392.7915,149.5781 392.1665,149.5781 Q390.8228,149.5781 390.1353,150.6563 Q389.4478,151.7188 389.4478,153.8125 Q389.4478,155.9063 390.1353,156.9844 Q390.8228,158.0469 392.1665,158.0469 Q392.7915,158.0469 393.3853,157.7813 Q393.979,157.5 394.604,156.9219 L394.604,159.6406 Z " fill="#000000"/><text fill="#000000" font-family="sans-serif" font-size="14" lengthAdjust="spacing" textLength="198.4063" x="412.1353" y="158.8467">NegativeExponentException</text><line style="stroke:#181818;stroke-width:0.5;" x1="316.5" x2="673.6768" y1="170" y2="170"/><polygon fill="none" points="326.5,179.6484,322.5,185.6484,330.5,185.6484" style="stroke:#1963A0;stroke-width:1.0;"/><text fill="#000000" font-family="sans-serif" font-size="14" lengthAdjust="spacing" text-decoration="underline" textLength="155.1279" x="335.5" y="186.9951">serialVersionUID: long</text><line style="stroke:#181818;stroke-width:0.5;" x1="316.5" x2="673.6768" y1="194.2969" y2="194.2969"/><ellipse cx="326.5" cy="207.9453" fill="#84BE84" rx="3" ry="3" style="stroke:#038048;stroke-width:1.0;"/><text fill="#000000" font-family="sans-serif" font-size="14" lengthAdjust="spacing" textLength="209.3301" x="335.5" y="211.292">NegativeExponentException()</text><ellipse cx="326.5" cy="224.2422" fill="#84BE84" rx="3" ry="3" style="stroke:#038048;stroke-width:1.0;"/><text fill="#000000" font-family="sans-serif" font-size="14" lengthAdjust="spacing" textLength="251.1113" x="335.5" y="227.5889">NegativeExponentException(String)</text><ellipse cx="326.5" cy="240.5391" fill="#84BE84" rx="3" ry="3" style="stroke:#038048;stroke-width:1.0;"/><text fill="#000000" font-family="sans-serif" font-size="14" lengthAdjust="spacing" textLength="333.1768" x="335.5" y="243.8857">NegativeExponentException(String, Throwable)</text></g></a><!--class EmptyException--><a href="EmptyException.html" target="_top" title="EmptyException.html" xlink:actuate="onRequest" xlink:href="EmptyException.html" xlink:show="new" xlink:title="EmptyException.html" xlink:type="simple"><g id="elem_EmptyException"><rect codeLine="13" fill="#F1F1F1" height="113.1875" id="EmptyException" rx="2.5" ry="2.5" style="stroke:#181818;stroke-width:0.5;" width="275.0605" x="22.5" y="138"/><ellipse cx="98.6353" cy="154" fill="#ADD1B2" rx="11" ry="11" style="stroke:#181818;stroke-width:1.0;"/><path d="M101.604,159.6406 Q101.0259,159.9375 100.3853,160.0781 Q99.7446,160.2344 99.0415,160.2344 Q96.5415,160.2344 95.2134,158.5938 Q93.9009,156.9375 93.9009,153.8125 Q93.9009,150.6875 95.2134,149.0313 Q96.5415,147.375 99.0415,147.375 Q99.7446,147.375 100.3853,147.5313 Q101.0415,147.6875 101.604,147.9844 L101.604,150.7031 Q100.979,150.125 100.3853,149.8594 Q99.7915,149.5781 99.1665,149.5781 Q97.8228,149.5781 97.1353,150.6563 Q96.4478,151.7188 96.4478,153.8125 Q96.4478,155.9063 97.1353,156.9844 Q97.8228,158.0469 99.1665,158.0469 Q99.7915,158.0469 100.3853,157.7813 Q100.979,157.5 101.604,156.9219 L101.604,159.6406 Z " fill="#000000"/><text fill="#000000" font-family="sans-serif" font-size="14" lengthAdjust="spacing" textLength="114.29" x="119.1353" y="158.8467">EmptyException</text><line style="stroke:#181818;stroke-width:0.5;" x1="23.5" x2="296.5605" y1="170" y2="170"/><polygon fill="none" points="33.5,179.6484,29.5,185.6484,37.5,185.6484" style="stroke:#1963A0;stroke-width:1.0;"/><text fill="#000000" font-family="sans-serif" font-size="14" lengthAdjust="spacing" text-decoration="underline" textLength="155.1279" x="42.5" y="186.9951">serialVersionUID: long</text><line style="stroke:#181818;stroke-width:0.5;" x1="23.5" x2="296.5605" y1="194.2969" y2="194.2969"/><ellipse cx="33.5" cy="207.9453" fill="#84BE84" rx="3" ry="3" style="stroke:#038048;stroke-width:1.0;"/><text fill="#000000" font-family="sans-serif" font-size="14" lengthAdjust="spacing" textLength="125.2139" x="42.5" y="211.292">EmptyException()</text><ellipse cx="33.5" cy="224.2422" fill="#84BE84" rx="3" ry="3" style="stroke:#038048;stroke-width:1.0;"/><text fill="#000000" font-family="sans-serif" font-size="14" lengthAdjust="spacing" textLength="166.9951" x="42.5" y="227.5889">EmptyException(String)</text><ellipse cx="33.5" cy="240.5391" fill="#84BE84" rx="3" ry="3" style="stroke:#038048;stroke-width:1.0;"/><text fill="#000000" font-family="sans-serif" font-size="14" lengthAdjust="spacing" textLength="249.0605" x="42.5" y="243.8857">EmptyException(String, Throwable)</text></g></a><!--class IllegalArgumentException--><a href="https://docs.oracle.com/en/java/javase/17/docs/api/java.base/java/lang/IllegalArgumentException.html?is-external=true" target="_top" title="https://docs.oracle.com/en/java/javase/17/docs/api/java.base/java/lang/IllegalArgumentException.html?is-external=true" xlink:actuate="onRequest" xlink:href="https://docs.oracle.com/en/java/javase/17/docs/api/java.base/java/lang/IllegalArgumentException.html?is-external=true" xlink:show="new" xlink:title="https://docs.oracle.com/en/java/javase/17/docs/api/java.base/java/lang/IllegalArgumentException.html?is-external=true" xlink:type="simple"><g id="elem_IllegalArgumentException"><rect codeLine="23" fill="#F1F1F1" height="64.2969" id="IllegalArgumentException" rx="2.5" ry="2.5" style="stroke:#181818;stroke-width:0.5;" width="212.7285" x="328.5" y="31"/><ellipse cx="343.5" cy="47" fill="#ADD1B2" rx="11" ry="11" style="stroke:#181818;stroke-width:1.0;"/><path d="M346.4688,52.6406 Q345.8906,52.9375 345.25,53.0781 Q344.6094,53.2344 343.9063,53.2344 Q341.4063,53.2344 340.0781,51.5938 Q338.7656,49.9375 338.7656,46.8125 Q338.7656,43.6875 340.0781,42.0313 Q341.4063,40.375 343.9063,40.375 Q344.6094,40.375 345.25,40.5313 Q345.9063,40.6875 346.4688,40.9844 L346.4688,43.7031 Q345.8438,43.125 345.25,42.8594 Q344.6563,42.5781 344.0313,42.5781 Q342.6875,42.5781 342,43.6563 Q341.3125,44.7188 341.3125,46.8125 Q341.3125,48.9063 342,49.9844 Q342.6875,51.0469 344.0313,51.0469 Q344.6563,51.0469 345.25,50.7813 Q345.8438,50.5 346.4688,49.9219 L346.4688,52.6406 Z " fill="#000000"/><text fill="#000000" font-family="sans-serif" font-size="14" lengthAdjust="spacing" textLength="180.7285" x="357.5" y="51.8467">IllegalArgumentException</text><line style="stroke:#181818;stroke-width:0.5;" x1="329.5" x2="540.2285" y1="63" y2="63"/><rect fill="none" height="6" style="stroke:#C82930;stroke-width:1.0;" width="6" x="336.5" y="73.6484"/><text fill="#000000" font-family="sans-serif" font-size="14" lengthAdjust="spacing" text-decoration="underline" textLength="155.1279" x="348.5" y="79.9951">serialVersionUID: long</text><line style="stroke:#181818;stroke-width:0.5;" x1="329.5" x2="540.2285" y1="87.2969" y2="87.2969"/></g></a><!--class IllegalStateException--><a href="https://docs.oracle.com/en/java/javase/17/docs/api/java.base/java/lang/IllegalStateException.html?is-external=true" target="_top" title="https://docs.oracle.com/en/java/javase/17/docs/api/java.base/java/lang/IllegalStateException.html?is-external=true" xlink:actuate="onRequest" xlink:href="https://docs.oracle.com/en/java/javase/17/docs/api/java.base/java/lang/IllegalStateException.html?is-external=true" xlink:show="new" xlink:title="https://docs.oracle.com/en/java/javase/17/docs/api/java.base/java/lang/IllegalStateException.html?is-external=true" xlink:type="simple"><g id="elem_IllegalStateException"><rect codeLine="26" fill="#F1F1F1" height="64.2969" id="IllegalStateException" rx="2.5" ry="2.5" style="stroke:#181818;stroke-width:0.5;" width="181.1279" x="129.5" y="31"/><ellipse cx="144.9715" cy="47" fill="#ADD1B2" rx="11" ry="11" style="stroke:#181818;stroke-width:1.0;"/><path d="M147.9403,52.6406 Q147.3622,52.9375 146.7215,53.0781 Q146.0809,53.2344 145.3778,53.2344 Q142.8778,53.2344 141.5497,51.5938 Q140.2372,49.9375 140.2372,46.8125 Q140.2372,43.6875 141.5497,42.0313 Q142.8778,40.375 145.3778,40.375 Q146.0809,40.375 146.7215,40.5313 Q147.3778,40.6875 147.9403,40.9844 L147.9403,43.7031 Q147.3153,43.125 146.7215,42.8594 Q146.1278,42.5781 145.5028,42.5781 Q144.159,42.5781 143.4715,43.6563 Q142.784,44.7188 142.784,46.8125 Q142.784,48.9063 143.4715,49.9844 Q144.159,51.0469 145.5028,51.0469 Q146.1278,51.0469 146.7215,50.7813 Q147.3153,50.5 147.9403,49.9219 L147.9403,52.6406 Z " fill="#000000"/><text fill="#000000" font-family="sans-serif" font-size="14" lengthAdjust="spacing" textLength="148.0801" x="159.0763" y="51.8467">IllegalStateException</text><line style="stroke:#181818;stroke-width:0.5;" x1="130.5" x2="309.6279" y1="63" y2="63"/><polygon fill="none" points="140.5,72.6484,136.5,78.6484,144.5,78.6484" style="stroke:#1963A0;stroke-width:1.0;"/><text fill="#000000" font-family="sans-serif" font-size="14" lengthAdjust="spacing" text-decoration="underline" textLength="155.1279" x="149.5" y="79.9951">serialVersionUID: long</text><line style="stroke:#181818;stroke-width:0.5;" x1="130.5" x2="309.6279" y1="87.2969" y2="87.2969"/></g></a><polygon fill="none" points="449.3715,95.0185,451.4945,113.873,462.3826,108.8283,449.3715,95.0185" style="stroke:#181818;stroke-width:1.0;"/><path d="M456.9385,111.3507 C462.9016,124.2209 462.4405,123.2258 469.2486,137.9199 " fill="none" style="stroke:#181818;stroke-width:1.0;"/><polygon fill="none" points="205.6285,95.0185,192.6174,108.8283,203.5055,113.873,205.6285,95.0185" style="stroke:#181818;stroke-width:1.0;"/><path d="M198.0615,111.3507 C192.0984,124.2209 192.5595,123.2258 185.7514,137.9199 " fill="none" style="stroke:#181818;stroke-width:1.0;"/><text fill="#888888" font-family="sans-serif" font-size="10" lengthAdjust="spacing" textLength="3.1787" x="335.4106" y="270.2822">&#160;</text><text fill="#888888" font-family="sans-serif" font-size="10" lengthAdjust="spacing" textLength="183.0908" x="245.4546" y="281.9229">UMLDoclet 2.2.0, PlantUML 1.2024.6</text><!--SRC=[jLHDJyCm3BtpAym1QGYMmYwW2eIGjiCaG4XyNCOEfZDT84sYn1j3K7uxQOTWhTOn9CYXKUsNPxrd9m00czPXcY4eV34J1fyHeyQDa05FuPyiEcJZ88utogZ5v0bJ0ibYecKcnKWAwqpQ4UEzGo4pg-1rZYnMej1xkA0KMKwfDxD6a-RUB27BqcWO31fpOioP6Wu36ooiLyy1dkJmxib9LBVaV03VzBinAAFJ2dYdaRorlIxmYftKwI_Xkt0zTkOPxnLzdyphjlGooo-BNbG3Vs50bR6kkfPTAdKfPfM-l3edZpX5eL2d2phcyljA1HlLgKidMMqenipMnr4qCeaNnc6YI2GcYqX71L_vyHJj7vI82AqiG-A-Y9Q8ecBKLA5qzaJwDisOd4Prp6v2pLQtVx0wNwxiAXod_vDLfV-jflUrD7qsywk9STpOjQEtTdl5gn37ZPUceKJDlX_vgvDQaYQX33buCAROxlJD-LdN1DSPEg8ZzdRXCbJa48MjwTo8rlO7]--></g></svg>