<svg xmlns="http://www.w3.org/2000/svg" xmlns:xlink="http://www.w3.org/1999/xlink" contentStyleType="text/css" height="565px" preserveAspectRatio="none" style="width:778px;height:565px;background:#FFFFFF;" version="1.1" viewBox="0 0 778 565" width="778px" zoomAndPan="magnify"><defs/><g><!--cluster it.unimi.di.prog2.s09--><g id="cluster_it.unimi.di.prog2.s09"><path d="M16.5,4 L183.3262,4 A3.75,3.75 0 0 1 185.8262,6.5 L192.8262,26.2969 L662.5,26.2969 A2.5,2.5 0 0 1 665,28.7969 L665,529.5 A2.5,2.5 0 0 1 662.5,532 L16.5,532 A2.5,2.5 0 0 1 14,529.5 L14,6.5 A2.5,2.5 0 0 1 16.5,4 " fill="none" style="stroke:#000000;stroke-width:1.5;"/><line style="stroke:#000000;stroke-width:1.5;" x1="14" x2="192.8262" y1="26.2969" y2="26.2969"/><text fill="#000000" font-family="sans-serif" font-size="14" font-weight="bold" lengthAdjust="spacing" textLength="165.8262" x="18" y="18.9951">it.unimi.di.prog2.s09</text></g><!--cluster java.lang--><g id="cluster_java.lang"><path d="M675.5,93.5 L748.8721,93.5 A3.75,3.75 0 0 1 751.3721,96 L758.3721,115.7969 L768.5,115.7969 A2.5,2.5 0 0 1 771,118.2969 L771,174 A2.5,2.5 0 0 1 768.5,176.5 L675.5,176.5 A2.5,2.5 0 0 1 673,174 L673,96 A2.5,2.5 0 0 1 675.5,93.5 " fill="none" style="stroke:#000000;stroke-width:1.5;"/><line style="stroke:#000000;stroke-width:1.5;" x1="673" x2="758.3721" y1="115.7969" y2="115.7969"/><text fill="#000000" font-family="sans-serif" font-size="14" font-weight="bold" lengthAdjust="spacing" textLength="72.3721" x="677" y="108.4951">java.lang</text></g><!--class PolyClient--><a href="PolyClient.html" target="_top" title="PolyClient.html" xlink:actuate="onRequest" xlink:href="PolyClient.html" xlink:show="new" xlink:title="PolyClient.html" xlink:type="simple"><g id="elem_PolyClient"><rect codeLine="6" fill="#F1F1F1" height="64.2969" id="PolyClient" rx="2.5" ry="2.5" style="stroke:#181818;stroke-width:0.5;" width="163.4023" x="312.5" y="112.5"/><ellipse cx="355.2603" cy="128.5" fill="#ADD1B2" rx="11" ry="11" style="stroke:#181818;stroke-width:1.0;"/><path d="M358.229,134.1406 Q357.6509,134.4375 357.0103,134.5781 Q356.3696,134.7344 355.6665,134.7344 Q353.1665,134.7344 351.8384,133.0938 Q350.5259,131.4375 350.5259,128.3125 Q350.5259,125.1875 351.8384,123.5313 Q353.1665,121.875 355.6665,121.875 Q356.3696,121.875 357.0103,122.0313 Q357.6665,122.1875 358.229,122.4844 L358.229,125.2031 Q357.604,124.625 357.0103,124.3594 Q356.4165,124.0781 355.7915,124.0781 Q354.4478,124.0781 353.7603,125.1563 Q353.0728,126.2188 353.0728,128.3125 Q353.0728,130.4063 353.7603,131.4844 Q354.4478,132.5469 355.7915,132.5469 Q356.4165,132.5469 357.0103,132.2813 Q357.604,132 358.229,131.4219 L358.229,134.1406 Z " fill="#000000"/><text fill="#000000" font-family="sans-serif" font-size="14" lengthAdjust="spacing" textLength="69.7129" x="375.4292" y="133.3467">PolyClient</text><line style="stroke:#181818;stroke-width:0.5;" x1="313.5" x2="474.9023" y1="144.5" y2="144.5"/><line style="stroke:#181818;stroke-width:0.5;" x1="313.5" x2="474.9023" y1="152.5" y2="152.5"/><ellipse cx="323.5" cy="166.1484" fill="#84BE84" rx="3" ry="3" style="stroke:#038048;stroke-width:1.0;"/><text fill="#000000" font-family="sans-serif" font-size="14" lengthAdjust="spacing" text-decoration="underline" textLength="137.4023" x="332.5" y="169.4951">main(String[]): void</text></g></a><!--class SparsePoly--><a href="SparsePoly.html" target="_top" title="SparsePoly.html" xlink:actuate="onRequest" xlink:href="SparsePoly.html" xlink:show="new" xlink:title="SparsePoly.html" xlink:type="simple"><g id="elem_SparsePoly"><rect codeLine="10" fill="#F1F1F1" height="227.2656" id="SparsePoly" rx="2.5" ry="2.5" style="stroke:#181818;stroke-width:0.5;" width="271.7178" x="22" y="31"/><ellipse cx="115.0098" cy="47" fill="#ADD1B2" rx="11" ry="11" style="stroke:#181818;stroke-width:1.0;"/><path d="M117.9785,52.6406 Q117.4004,52.9375 116.7598,53.0781 Q116.1191,53.2344 115.416,53.2344 Q112.916,53.2344 111.5879,51.5938 Q110.2754,49.9375 110.2754,46.8125 Q110.2754,43.6875 111.5879,42.0313 Q112.916,40.375 115.416,40.375 Q116.1191,40.375 116.7598,40.5313 Q117.416,40.6875 117.9785,40.9844 L117.9785,43.7031 Q117.3535,43.125 116.7598,42.8594 Q116.166,42.5781 115.541,42.5781 Q114.1973,42.5781 113.5098,43.6563 Q112.8223,44.7188 112.8223,46.8125 Q112.8223,48.9063 113.5098,49.9844 Q114.1973,51.0469 115.541,51.0469 Q116.166,51.0469 116.7598,50.7813 Q117.3535,50.5 117.9785,49.9219 L117.9785,52.6406 Z " fill="#000000"/><text fill="#000000" font-family="sans-serif" font-size="14" lengthAdjust="spacing" textLength="77.1982" x="135.5098" y="51.8467">SparsePoly</text><line style="stroke:#181818;stroke-width:0.5;" x1="23" x2="292.7178" y1="63" y2="63"/><line style="stroke:#181818;stroke-width:0.5;" x1="23" x2="292.7178" y1="71" y2="71"/><ellipse cx="33" cy="84.6484" fill="#84BE84" rx="3" ry="3" style="stroke:#038048;stroke-width:1.0;"/><text fill="#000000" font-family="sans-serif" font-size="14" lengthAdjust="spacing" textLength="88.1221" x="42" y="87.9951">SparsePoly()</text><ellipse cx="33" cy="100.9453" fill="#84BE84" rx="3" ry="3" style="stroke:#038048;stroke-width:1.0;"/><text fill="#000000" font-family="sans-serif" font-size="14" lengthAdjust="spacing" textLength="133.5264" x="42" y="104.292">SparsePoly(int, int)</text><rect fill="#F24D5C" height="6" style="stroke:#C82930;stroke-width:1.0;" width="6" x="30" y="114.2422"/><text fill="#000000" font-family="sans-serif" font-size="14" lengthAdjust="spacing" textLength="172.6143" x="42" y="120.5889">SparsePoly(List&lt;Term&gt;)</text><rect fill="#F24D5C" height="6" style="stroke:#C82930;stroke-width:1.0;" width="6" x="30" y="130.5391"/><text fill="#000000" font-family="sans-serif" font-size="14" lengthAdjust="spacing" text-decoration="underline" textLength="245.7178" x="42" y="136.8857">findByDegree(List&lt;Term&gt;, int): int</text><ellipse cx="33" cy="149.8359" fill="#84BE84" rx="3" ry="3" style="stroke:#038048;stroke-width:1.0;"/><text fill="#000000" font-family="sans-serif" font-size="14" lengthAdjust="spacing" textLength="91.3281" x="42" y="153.1826">coeff(int): int</text><ellipse cx="33" cy="166.1328" fill="#84BE84" rx="3" ry="3" style="stroke:#038048;stroke-width:1.0;"/><text fill="#000000" font-family="sans-serif" font-size="14" lengthAdjust="spacing" textLength="87.7119" x="42" y="169.4795">degree(): int</text><rect fill="#F24D5C" height="6" style="stroke:#C82930;stroke-width:1.0;" width="6" x="30" y="179.4297"/><text fill="#000000" font-family="sans-serif" font-size="14" lengthAdjust="spacing" text-decoration="underline" textLength="242.5801" x="42" y="185.7764">addTerm(List&lt;Term&gt;, Term): void</text><ellipse cx="33" cy="198.7266" fill="#84BE84" rx="3" ry="3" style="stroke:#038048;stroke-width:1.0;"/><text fill="#000000" font-family="sans-serif" font-size="14" lengthAdjust="spacing" textLength="200.8398" x="42" y="202.0732">add(SparsePoly): SparsePoly</text><ellipse cx="33" cy="215.0234" fill="#84BE84" rx="3" ry="3" style="stroke:#038048;stroke-width:1.0;"/><text fill="#000000" font-family="sans-serif" font-size="14" lengthAdjust="spacing" textLength="200.8877" x="42" y="218.3701">mul(SparsePoly): SparsePoly</text><ellipse cx="33" cy="231.3203" fill="#84BE84" rx="3" ry="3" style="stroke:#038048;stroke-width:1.0;"/><text fill="#000000" font-family="sans-serif" font-size="14" lengthAdjust="spacing" textLength="199.541" x="42" y="234.667">sub(SparsePoly): SparsePoly</text><ellipse cx="33" cy="247.6172" fill="#84BE84" rx="3" ry="3" style="stroke:#038048;stroke-width:1.0;"/><text fill="#000000" font-family="sans-serif" font-size="14" lengthAdjust="spacing" textLength="139.8564" x="42" y="250.9639">minus(): SparsePoly</text></g></a><!--class SparsePoly.Term--><a href="SparsePoly.Term.html" target="_top" title="SparsePoly.Term.html" xlink:actuate="onRequest" xlink:href="SparsePoly.Term.html" xlink:show="new" xlink:title="SparsePoly.Term.html" xlink:type="simple"><g id="elem_SparsePoly.Term"><rect codeLine="24" fill="#F1F1F1" height="129.4844" id="SparsePoly.Term" rx="2.5" ry="2.5" style="stroke:#181818;stroke-width:0.5;" width="150.207" x="130" y="354"/><ellipse cx="145" cy="370" fill="#ADD1B2" rx="11" ry="11" style="stroke:#181818;stroke-width:1.0;"/><path d="M147.9688,375.6406 Q147.3906,375.9375 146.75,376.0781 Q146.1094,376.2344 145.4063,376.2344 Q142.9063,376.2344 141.5781,374.5938 Q140.2656,372.9375 140.2656,369.8125 Q140.2656,366.6875 141.5781,365.0313 Q142.9063,363.375 145.4063,363.375 Q146.1094,363.375 146.75,363.5313 Q147.4063,363.6875 147.9688,363.9844 L147.9688,366.7031 Q147.3438,366.125 146.75,365.8594 Q146.1563,365.5781 145.5313,365.5781 Q144.1875,365.5781 143.5,366.6563 Q142.8125,367.7188 142.8125,369.8125 Q142.8125,371.9063 143.5,372.9844 Q144.1875,374.0469 145.5313,374.0469 Q146.1563,374.0469 146.75,373.7813 Q147.3438,373.5 147.9688,372.9219 L147.9688,375.6406 Z " fill="#000000"/><text fill="#000000" font-family="sans-serif" font-size="14" lengthAdjust="spacing" textLength="118.207" x="159" y="374.8467">SparsePoly.Term</text><line style="stroke:#181818;stroke-width:0.5;" x1="131" x2="279.207" y1="386" y2="386"/><rect fill="none" height="6" style="stroke:#C82930;stroke-width:1.0;" width="6" x="138" y="396.6484"/><text fill="#000000" font-family="sans-serif" font-size="14" lengthAdjust="spacing" textLength="62.1523" x="150" y="402.9951">coeff: int</text><rect fill="none" height="6" style="stroke:#C82930;stroke-width:1.0;" width="6" x="138" y="412.9453"/><text fill="#000000" font-family="sans-serif" font-size="14" lengthAdjust="spacing" textLength="76.7881" x="150" y="419.292">degree: int</text><line style="stroke:#181818;stroke-width:0.5;" x1="131" x2="279.207" y1="426.5938" y2="426.5938"/><ellipse cx="141" cy="440.2422" fill="#84BE84" rx="3" ry="3" style="stroke:#038048;stroke-width:1.0;"/><text fill="#000000" font-family="sans-serif" font-size="14" lengthAdjust="spacing" textLength="92.8867" x="150" y="443.5889">Term(int, int)</text><ellipse cx="141" cy="456.5391" fill="#84BE84" rx="3" ry="3" style="stroke:#038048;stroke-width:1.0;"/><text fill="#000000" font-family="sans-serif" font-size="14" lengthAdjust="spacing" textLength="73.0762" x="150" y="459.8857">coeff(): int</text><ellipse cx="141" cy="472.8359" fill="#84BE84" rx="3" ry="3" style="stroke:#038048;stroke-width:1.0;"/><text fill="#000000" font-family="sans-serif" font-size="14" lengthAdjust="spacing" textLength="87.7119" x="150" y="476.1826">degree(): int</text></g></a><!--class SparsePolyClient--><a href="SparsePolyClient.html" target="_top" title="SparsePolyClient.html" xlink:actuate="onRequest" xlink:href="SparsePolyClient.html" xlink:show="new" xlink:title="SparsePolyClient.html" xlink:type="simple"><g id="elem_SparsePolyClient"><rect codeLine="32" fill="#F1F1F1" height="64.2969" id="SparsePolyClient" rx="2.5" ry="2.5" style="stroke:#181818;stroke-width:0.5;" width="163.4023" x="493.5" y="112.5"/><ellipse cx="514.6532" cy="128.5" fill="#ADD1B2" rx="11" ry="11" style="stroke:#181818;stroke-width:1.0;"/><path d="M517.622,134.1406 Q517.0438,134.4375 516.4032,134.5781 Q515.7626,134.7344 515.0595,134.7344 Q512.5595,134.7344 511.2313,133.0938 Q509.9188,131.4375 509.9188,128.3125 Q509.9188,125.1875 511.2313,123.5313 Q512.5595,121.875 515.0595,121.875 Q515.7626,121.875 516.4032,122.0313 Q517.0595,122.1875 517.622,122.4844 L517.622,125.2031 Q516.997,124.625 516.4032,124.3594 Q515.8095,124.0781 515.1845,124.0781 Q513.8407,124.0781 513.1532,125.1563 Q512.4657,126.2188 512.4657,128.3125 Q512.4657,130.4063 513.1532,131.4844 Q513.8407,132.5469 515.1845,132.5469 Q515.8095,132.5469 516.4032,132.2813 Q516.997,132 517.622,131.4219 L517.622,134.1406 Z " fill="#000000"/><text fill="#000000" font-family="sans-serif" font-size="14" lengthAdjust="spacing" textLength="117.7285" x="530.0206" y="133.3467">SparsePolyClient</text><line style="stroke:#181818;stroke-width:0.5;" x1="494.5" x2="655.9023" y1="144.5" y2="144.5"/><line style="stroke:#181818;stroke-width:0.5;" x1="494.5" x2="655.9023" y1="152.5" y2="152.5"/><ellipse cx="504.5" cy="166.1484" fill="#84BE84" rx="3" ry="3" style="stroke:#038048;stroke-width:1.0;"/><text fill="#000000" font-family="sans-serif" font-size="14" lengthAdjust="spacing" text-decoration="underline" textLength="137.4023" x="513.5" y="169.4951">main(String[]): void</text></g></a><!--class Poly--><a href="Poly.html" target="_top" title="Poly.html" xlink:actuate="onRequest" xlink:href="Poly.html" xlink:show="new" xlink:title="Poly.html" xlink:type="simple"><g id="elem_Poly"><rect codeLine="36" fill="#F1F1F1" height="210.9688" id="Poly" rx="2.5" ry="2.5" style="stroke:#181818;stroke-width:0.5;" width="137.5283" x="325" y="313"/><ellipse cx="374.9229" cy="329" fill="#ADD1B2" rx="11" ry="11" style="stroke:#181818;stroke-width:1.0;"/><path d="M377.8916,334.6406 Q377.3135,334.9375 376.6729,335.0781 Q376.0322,335.2344 375.3291,335.2344 Q372.8291,335.2344 371.501,333.5938 Q370.1885,331.9375 370.1885,328.8125 Q370.1885,325.6875 371.501,324.0313 Q372.8291,322.375 375.3291,322.375 Q376.0322,322.375 376.6729,322.5313 Q377.3291,322.6875 377.8916,322.9844 L377.8916,325.7031 Q377.2666,325.125 376.6729,324.8594 Q376.0791,324.5781 375.4541,324.5781 Q374.1104,324.5781 373.4229,325.6563 Q372.7354,326.7188 372.7354,328.8125 Q372.7354,330.9063 373.4229,331.9844 Q374.1104,333.0469 375.4541,333.0469 Q376.0791,333.0469 376.6729,332.7813 Q377.2666,332.5 377.8916,331.9219 L377.8916,334.6406 Z " fill="#000000"/><text fill="#000000" font-family="sans-serif" font-size="14" lengthAdjust="spacing" textLength="29.1826" x="395.4229" y="333.8467">Poly</text><line style="stroke:#181818;stroke-width:0.5;" x1="326" x2="461.5283" y1="345" y2="345"/><rect fill="none" height="6" style="stroke:#C82930;stroke-width:1.0;" width="6" x="333" y="355.6484"/><text fill="#000000" font-family="sans-serif" font-size="14" lengthAdjust="spacing" textLength="111.5283" x="345" y="361.9951">coefficient: int[]</text><line style="stroke:#181818;stroke-width:0.5;" x1="326" x2="461.5283" y1="369.2969" y2="369.2969"/><ellipse cx="336" cy="382.9453" fill="#84BE84" rx="3" ry="3" style="stroke:#038048;stroke-width:1.0;"/><text fill="#000000" font-family="sans-serif" font-size="14" lengthAdjust="spacing" textLength="40.1064" x="345" y="386.292">Poly()</text><ellipse cx="336" cy="399.2422" fill="#84BE84" rx="3" ry="3" style="stroke:#038048;stroke-width:1.0;"/><text fill="#000000" font-family="sans-serif" font-size="14" lengthAdjust="spacing" textLength="85.5107" x="345" y="402.5889">Poly(int, int)</text><rect fill="#F24D5C" height="6" style="stroke:#C82930;stroke-width:1.0;" width="6" x="333" y="412.5391"/><text fill="#000000" font-family="sans-serif" font-size="14" lengthAdjust="spacing" textLength="58.3584" x="345" y="418.8857">Poly(int)</text><ellipse cx="336" cy="431.8359" fill="#84BE84" rx="3" ry="3" style="stroke:#038048;stroke-width:1.0;"/><text fill="#000000" font-family="sans-serif" font-size="14" lengthAdjust="spacing" textLength="87.7119" x="345" y="435.1826">degree(): int</text><ellipse cx="336" cy="448.1328" fill="#84BE84" rx="3" ry="3" style="stroke:#038048;stroke-width:1.0;"/><text fill="#000000" font-family="sans-serif" font-size="14" lengthAdjust="spacing" textLength="91.3281" x="345" y="451.4795">coeff(int): int</text><ellipse cx="336" cy="464.4297" fill="#84BE84" rx="3" ry="3" style="stroke:#038048;stroke-width:1.0;"/><text fill="#000000" font-family="sans-serif" font-size="14" lengthAdjust="spacing" textLength="104.8086" x="345" y="467.7764">add(Poly): Poly</text><ellipse cx="336" cy="480.7266" fill="#84BE84" rx="3" ry="3" style="stroke:#038048;stroke-width:1.0;"/><text fill="#000000" font-family="sans-serif" font-size="14" lengthAdjust="spacing" textLength="104.8564" x="345" y="484.0732">mul(Poly): Poly</text><ellipse cx="336" cy="497.0234" fill="#84BE84" rx="3" ry="3" style="stroke:#038048;stroke-width:1.0;"/><text fill="#000000" font-family="sans-serif" font-size="14" lengthAdjust="spacing" textLength="103.5098" x="345" y="500.3701">sub(Poly): Poly</text><ellipse cx="336" cy="513.3203" fill="#84BE84" rx="3" ry="3" style="stroke:#038048;stroke-width:1.0;"/><text fill="#000000" font-family="sans-serif" font-size="14" lengthAdjust="spacing" textLength="91.8408" x="345" y="516.667">minus(): Poly</text></g></a><!--class Record--><a href="https://docs.oracle.com/en/java/javase/17/docs/api/java.base/java/lang/Record.html?is-external=true" target="_top" title="https://docs.oracle.com/en/java/javase/17/docs/api/java.base/java/lang/Record.html?is-external=true" xlink:actuate="onRequest" xlink:href="https://docs.oracle.com/en/java/javase/17/docs/api/java.base/java/lang/Record.html?is-external=true" xlink:show="new" xlink:title="https://docs.oracle.com/en/java/javase/17/docs/api/java.base/java/lang/Record.html?is-external=true" xlink:type="simple"><g id="elem_Record"><rect codeLine="52" fill="#F1F1F1" height="48" id="Record" rx="2.5" ry="2.5" style="stroke:#181818;stroke-width:0.5;" width="81.2461" x="681.5" y="120.5"/><ellipse cx="696.5" cy="136.5" fill="#A9DCDF" rx="11" ry="11" style="stroke:#181818;stroke-width:1.0;"/><path d="M696.6094,131.8438 L695.4531,136.9219 L697.7813,136.9219 L696.6094,131.8438 Z M695.125,129.6094 L698.1094,129.6094 L701.4688,142 L699.0156,142 L698.25,138.9375 L694.9688,138.9375 L694.2188,142 L691.7813,142 L695.125,129.6094 Z " fill="#000000"/><text fill="#000000" font-family="sans-serif" font-size="14" font-style="italic" lengthAdjust="spacing" textLength="49.2461" x="710.5" y="141.3467">Record</text><line style="stroke:#181818;stroke-width:0.5;" x1="682.5" x2="761.7461" y1="152.5" y2="152.5"/><line style="stroke:#181818;stroke-width:0.5;" x1="682.5" x2="761.7461" y1="160.5" y2="160.5"/></g></a><polygon fill="#181818" points="176.2688,353.8712,176.8141,344.0374,174.4942,349.1967,169.3349,346.8768,176.2688,353.8712" style="stroke:#181818;stroke-width:1.0;"/><path d="M154.5013,258.1503 C155.3731,270.6432 156.8042,283.1321 159,295 C162.6371,314.6576 167.0797,329.6664 174.1393,348.2618 " fill="none" style="stroke:#181818;stroke-width:1.0;"/><text fill="#000000" font-family="sans-serif" font-size="13" lengthAdjust="spacing" textLength="37.8765" x="161" y="290.0669">terms</text><text fill="#000000" font-family="sans-serif" font-size="13" lengthAdjust="spacing" textLength="6.5" x="169.2688" y="349.9381">*</text><polygon fill="none" points="717.8113,168.5362,707.9139,184.7239,719.606,187.4248,717.8113,168.5362" style="stroke:#181818;stroke-width:1.0;"/><path d="M713.7599,186.0743 C707.7375,212.1455 698.038,236.2649 669,258 C541.8836,353.1476 458.6341,243.235 316,313 C295.4342,323.0591 276.0935,338.2513 259.498,353.9592 " fill="none" style="stroke:#181818;stroke-width:1.0;"/><ellipse cx="198.1642" cy="265.9891" fill="#FFFFFF" rx="8" ry="8" style="stroke:#181818;stroke-width:1.0;"/><line style="stroke:#181818;stroke-width:1.0;" x1="199.9586" x2="196.3697" y1="273.7852" y2="258.1929"/><line style="stroke:#181818;stroke-width:1.0;" x1="190.368" x2="205.9603" y1="267.7835" y2="264.1947"/><path d="M199.9586,273.7852 C201.3362,279.7705 198.9737,270.139 200,276 C204.4093,301.1814 206.0613,329.256 206.4685,353.7171 " fill="none" style="stroke:#181818;stroke-width:1.0;"/><text fill="#888888" font-family="sans-serif" font-size="10" lengthAdjust="spacing" textLength="3.1787" x="379.4106" y="543.2822">&#160;</text><text fill="#888888" font-family="sans-serif" font-size="10" lengthAdjust="spacing" textLength="183.0908" x="289.4546" y="554.9229">UMLDoclet 2.2.0, PlantUML 1.2024.6</text><!--SRC=[hLJ1RjGm4BttAuPAI4ctSSfU45Of4lHOf8h2QSd1wtXJGs97jhDYLVRViPrqasoT9KZuuCWpBsyyRsOC0F2gLgIe29Ha9ni3kcA6279cFQ2PFREQA6Aa0epFlBKcz2Sf67236i4hZdAEQYMB9T9Nx-2f1Rb5Iw8rtCjozwdaJ1XOhVe3UZHLcMKM3uFrf0qndEvXKH4keWUZk2XMMOnXAtb-WEwFWppOIshcs6sG_X0EikW1KJpfuS9SWjt6Y6I0kEFQN7zbghg9mqaa6oxoZxjRLYZ61l2M5xjz79vAjjb44ywyfGcu-e0aprs4KIptEHRG4rfmrATZ8VrX3AoQSXvGD-kPZ5mqEWe3JXGNkLp65NQMS9aJh-PBjP9Mo832NhfmtRlIpA_BYImEqt1i-hypqKt3z1oq0d7gGllBhx9nPg49EJKRpxvuRkEURdZNdrqVXNjoqkdwSFhFvzuBTTr-_CRz85k2IYAAWNHahOqYr7GoVs5KgjmA_MXChN6Qvf9g92sYP8ZAAcKYTJH-qonzyzOZKb9pRq9hP_K85oXj-Np5Fd2Ti5-6AK7AzqOrBCk6bmm-m1WFti8akO7pY_E_8_qOOR2XAksv3ubZt2Lu_Jj9PXBDlDtYtmYfRLEcO2Eb-tmNtpxVtKehie4bMgAhIxYtzpNM2g-tJ6akHHJ_0G00]--></g></svg>