<svg xmlns="http://www.w3.org/2000/svg" xmlns:xlink="http://www.w3.org/1999/xlink" contentStyleType="text/css" height="246px" preserveAspectRatio="none" style="width:248px;height:246px;background:#FFFFFF;" version="1.1" viewBox="0 0 248 246" width="248px" zoomAndPan="magnify"><defs/><g><!--class it.unimi.di.prog2.s09.SparsePoly.Term--><a href="SparsePoly.Term.html" target="_top" title="SparsePoly.Term.html" xlink:actuate="onRequest" xlink:href="SparsePoly.Term.html" xlink:show="new" xlink:title="SparsePoly.Term.html" xlink:type="simple"><g id="elem_it.unimi.di.prog2.s09.SparsePoly.Term"><rect codeLine="7" fill="#F1F1F1" height="135.4219" id="it.unimi.di.prog2.s09.SparsePoly.Term" rx="2.5" ry="2.5" style="stroke:#181818;stroke-width:0.5;" width="150.207" x="34.5" y="86"/><ellipse cx="49.5" cy="104.9688" fill="#ADD1B2" rx="11" ry="11" style="stroke:#181818;stroke-width:1.0;"/><path d="M52.4688,110.6094 Q51.8906,110.9063 51.25,111.0469 Q50.6094,111.2031 49.9063,111.2031 Q47.4063,111.2031 46.0781,109.5625 Q44.7656,107.9063 44.7656,104.7813 Q44.7656,101.6563 46.0781,100 Q47.4063,98.3438 49.9063,98.3438 Q50.6094,98.3438 51.25,98.5 Q51.9063,98.6563 52.4688,98.9531 L52.4688,101.6719 Q51.8438,101.0938 51.25,100.8281 Q50.6563,100.5469 50.0313,100.5469 Q48.6875,100.5469 48,101.625 Q47.3125,102.6875 47.3125,104.7813 Q47.3125,106.875 48,107.9531 Q48.6875,109.0156 50.0313,109.0156 Q50.6563,109.0156 51.25,108.75 Q51.8438,108.4688 52.4688,107.8906 L52.4688,110.6094 Z " fill="#000000"/><text fill="#000000" font-family="sans-serif" font-size="14" lengthAdjust="spacing" textLength="118.207" x="63.5" y="103.9951">SparsePoly.Term</text><text fill="#000000" font-family="sans-serif" font-size="10" lengthAdjust="spacing" textLength="103.7354" x="70.7358" y="116.5791">it.unimi.di.prog2.s09</text><line style="stroke:#181818;stroke-width:0.5;" x1="35.5" x2="183.707" y1="123.9375" y2="123.9375"/><rect fill="none" height="6" style="stroke:#C82930;stroke-width:1.0;" width="6" x="42.5" y="134.5859"/><text fill="#000000" font-family="sans-serif" font-size="14" lengthAdjust="spacing" textLength="62.1523" x="54.5" y="140.9326">coeff: int</text><rect fill="none" height="6" style="stroke:#C82930;stroke-width:1.0;" width="6" x="42.5" y="150.8828"/><text fill="#000000" font-family="sans-serif" font-size="14" lengthAdjust="spacing" textLength="76.7881" x="54.5" y="157.2295">degree: int</text><line style="stroke:#181818;stroke-width:0.5;" x1="35.5" x2="183.707" y1="164.5313" y2="164.5313"/><ellipse cx="45.5" cy="178.1797" fill="#84BE84" rx="3" ry="3" style="stroke:#038048;stroke-width:1.0;"/><text fill="#000000" font-family="sans-serif" font-size="14" lengthAdjust="spacing" textLength="92.8867" x="54.5" y="181.5264">Term(int, int)</text><ellipse cx="45.5" cy="194.4766" fill="#84BE84" rx="3" ry="3" style="stroke:#038048;stroke-width:1.0;"/><text fill="#000000" font-family="sans-serif" font-size="14" lengthAdjust="spacing" textLength="73.0762" x="54.5" y="197.8232">coeff(): int</text><ellipse cx="45.5" cy="210.7734" fill="#84BE84" rx="3" ry="3" style="stroke:#038048;stroke-width:1.0;"/><text fill="#000000" font-family="sans-serif" font-size="14" lengthAdjust="spacing" textLength="87.7119" x="54.5" y="214.1201">degree(): int</text></g></a><!--class java.lang.Record--><a href="https://docs.oracle.com/en/java/javase/17/docs/api/java.base/java/lang/Record.html?is-external=true" target="_top" title="https://docs.oracle.com/en/java/javase/17/docs/api/java.base/java/lang/Record.html?is-external=true" xlink:actuate="onRequest" xlink:href="https://docs.oracle.com/en/java/javase/17/docs/api/java.base/java/lang/Record.html?is-external=true" xlink:show="new" xlink:title="https://docs.oracle.com/en/java/javase/17/docs/api/java.base/java/lang/Record.html?is-external=true" xlink:type="simple"><g id="elem_java.lang.Record"><rect codeLine="15" fill="#F1F1F1" height="37.9375" id="java.lang.Record" rx="2.5" ry="2.5" style="stroke:#181818;stroke-width:0.5;" width="81.2461" x="6" y="12"/><ellipse cx="21" cy="30.9688" fill="#A9DCDF" rx="11" ry="11" style="stroke:#181818;stroke-width:1.0;"/><path d="M21.1094,26.3125 L19.9531,31.3906 L22.2813,31.3906 L21.1094,26.3125 Z M19.625,24.0781 L22.6094,24.0781 L25.9688,36.4688 L23.5156,36.4688 L22.75,33.4063 L19.4688,33.4063 L18.7188,36.4688 L16.2813,36.4688 L19.625,24.0781 Z " fill="#000000"/><text fill="#000000" font-family="sans-serif" font-size="14" font-style="italic" lengthAdjust="spacing" textLength="49.2461" x="35" y="29.9951">Record</text><text fill="#000000" font-family="sans-serif" font-size="10" font-style="italic" lengthAdjust="spacing" textLength="45.7227" x="36.7617" y="42.5791">java.lang</text></g></a><!--class it.unimi.di.prog2.s09.SparsePoly--><a href="SparsePoly.html" target="_top" title="SparsePoly.html" xlink:actuate="onRequest" xlink:href="SparsePoly.html" xlink:show="new" xlink:title="SparsePoly.html" xlink:type="simple"><g id="elem_it.unimi.di.prog2.s09.SparsePoly"><rect codeLine="16" fill="#F1F1F1" height="37.9375" id="it.unimi.di.prog2.s09.SparsePoly" rx="2.5" ry="2.5" style="stroke:#181818;stroke-width:0.5;" width="135.7354" x="105.5" y="12"/><ellipse cx="120.5" cy="30.9688" fill="#ADD1B2" rx="11" ry="11" style="stroke:#181818;stroke-width:1.0;"/><path d="M123.4688,36.6094 Q122.8906,36.9063 122.25,37.0469 Q121.6094,37.2031 120.9063,37.2031 Q118.4063,37.2031 117.0781,35.5625 Q115.7656,33.9063 115.7656,30.7813 Q115.7656,27.6563 117.0781,26 Q118.4063,24.3438 120.9063,24.3438 Q121.6094,24.3438 122.25,24.5 Q122.9063,24.6563 123.4688,24.9531 L123.4688,27.6719 Q122.8438,27.0938 122.25,26.8281 Q121.6563,26.5469 121.0313,26.5469 Q119.6875,26.5469 119,27.625 Q118.3125,28.6875 118.3125,30.7813 Q118.3125,32.875 119,33.9531 Q119.6875,35.0156 121.0313,35.0156 Q121.6563,35.0156 122.25,34.75 Q122.8438,34.4688 123.4688,33.8906 L123.4688,36.6094 Z " fill="#000000"/><text fill="#000000" font-family="sans-serif" font-size="14" lengthAdjust="spacing" textLength="77.1982" x="147.7686" y="29.9951">SparsePoly</text><text fill="#000000" font-family="sans-serif" font-size="10" lengthAdjust="spacing" textLength="103.7354" x="134.5" y="42.5791">it.unimi.di.prog2.s09</text></g></a><polygon fill="none" points="55.9317,50.0401,58.9543,68.7714,69.5886,63.2116,55.9317,50.0401" style="stroke:#181818;stroke-width:1.0;"/><path d="M64.2715,65.9915 C69.3861,75.7741 67.7207,72.5889 74.614,85.7736 " fill="none" style="stroke:#181818;stroke-width:1.0;"/><ellipse cx="160.166" cy="57.1054" fill="#FFFFFF" rx="8" ry="8" style="stroke:#181818;stroke-width:1.0;"/><line style="stroke:#181818;stroke-width:1.0;" x1="156.4135" x2="163.9186" y1="64.1707" y2="50.0401"/><line style="stroke:#181818;stroke-width:1.0;" x1="153.1007" x2="167.2313" y1="53.3528" y2="60.8579"/><path d="M156.4135,64.1707 C151.2177,73.9533 151.9424,72.5889 144.9398,85.7736 " fill="none" style="stroke:#181818;stroke-width:1.0;"/><text fill="#888888" font-family="sans-serif" font-size="10" lengthAdjust="spacing" textLength="3.1787" x="118.6606" y="224.2822">&#160;</text><text fill="#888888" font-family="sans-serif" font-size="10" lengthAdjust="spacing" textLength="183.0908" x="28.7046" y="235.9229">UMLDoclet 2.2.0, PlantUML 1.2024.6</text><!--SRC=[hP5VJy8m5CNV-HHN4XC8h0DYOYI8BpvgGaIVO0-NxcwhsTgbBKJyyztjEYCmJD34FgpfxvwUzTu3071MQamBX1otQct156HHOglbIc38WiI2J8cSvbIYHgiqI2N9rpCH4r1HsYqaWlBODAapovJ3dlCSZO7sn8XN6WylfdFdPsYcyYrx95qivLTbC1MMhQKe18i5AxLAHymChjg01dwii8OJB1ODmZ9Rv544R_uXrGgueYGPWv1sns9ADT4Xx5NtEuxqAzpTSM_GwJRKjSK-_gYxnvMn6haz6iC3SQNZlUwVSOCiHvdwZhzFh1QwvZ9hIpCEmrXnmvGppObnLOGamqhjFuR2uQLNX5WAZzYgebvH-OMrdn_DZJ01lLZI4lDhgzSKHISY-vUq3eEgCwgdTTJrv3q8VfU-lt_opxq_sN6IRZYGA5LjI_bqVtUhtDWjZDY83VemSs-rZiBvXhGHIdQwdm00]--></g></svg>