<svg xmlns="http://www.w3.org/2000/svg" xmlns:xlink="http://www.w3.org/1999/xlink" contentStyleType="text/css" height="361px" preserveAspectRatio="none" style="width:284px;height:361px;background:#FFFFFF;" version="1.1" viewBox="0 0 284 361" width="284px" zoomAndPan="magnify"><defs/><g><!--class it.unimi.di.prog2.s09.SparsePoly--><a href="SparsePoly.html" target="_top" title="SparsePoly.html" xlink:actuate="onRequest" xlink:href="SparsePoly.html" xlink:show="new" xlink:title="SparsePoly.html" xlink:type="simple"><g id="elem_it.unimi.di.prog2.s09.SparsePoly"><rect codeLine="7" fill="#F1F1F1" height="249.5" id="it.unimi.di.prog2.s09.SparsePoly" rx="2.5" ry="2.5" style="stroke:#181818;stroke-width:0.5;" width="271.7178" x="6" y="12"/><ellipse cx="85.7412" cy="30.9688" fill="#ADD1B2" rx="11" ry="11" style="stroke:#181818;stroke-width:1.0;"/><path d="M88.71,36.6094 Q88.1318,36.9063 87.4912,37.0469 Q86.8506,37.2031 86.1475,37.2031 Q83.6475,37.2031 82.3193,35.5625 Q81.0068,33.9063 81.0068,30.7813 Q81.0068,27.6563 82.3193,26 Q83.6475,24.3438 86.1475,24.3438 Q86.8506,24.3438 87.4912,24.5 Q88.1475,24.6563 88.71,24.9531 L88.71,27.6719 Q88.085,27.0938 87.4912,26.8281 Q86.8975,26.5469 86.2725,26.5469 Q84.9287,26.5469 84.2412,27.625 Q83.5537,28.6875 83.5537,30.7813 Q83.5537,32.875 84.2412,33.9531 Q84.9287,35.0156 86.2725,35.0156 Q86.8975,35.0156 87.4912,34.75 Q88.085,34.4688 88.71,33.8906 L88.71,36.6094 Z " fill="#000000"/><text fill="#000000" font-family="sans-serif" font-size="14" lengthAdjust="spacing" textLength="77.1982" x="119.5098" y="29.9951">SparsePoly</text><text fill="#000000" font-family="sans-serif" font-size="10" lengthAdjust="spacing" textLength="103.7354" x="106.2412" y="42.5791">it.unimi.di.prog2.s09</text><line style="stroke:#181818;stroke-width:0.5;" x1="7" x2="276.7178" y1="49.9375" y2="49.9375"/><rect fill="none" height="6" style="stroke:#C82930;stroke-width:1.0;" width="6" x="14" y="60.5859"/><text fill="#000000" font-family="sans-serif" font-size="14" lengthAdjust="spacing" textLength="134.4492" x="26" y="66.9326">terms: List&lt;Term&gt;</text><line style="stroke:#181818;stroke-width:0.5;" x1="7" x2="276.7178" y1="74.2344" y2="74.2344"/><ellipse cx="17" cy="87.8828" fill="#84BE84" rx="3" ry="3" style="stroke:#038048;stroke-width:1.0;"/><text fill="#000000" font-family="sans-serif" font-size="14" lengthAdjust="spacing" textLength="88.1221" x="26" y="91.2295">SparsePoly()</text><ellipse cx="17" cy="104.1797" fill="#84BE84" rx="3" ry="3" style="stroke:#038048;stroke-width:1.0;"/><text fill="#000000" font-family="sans-serif" font-size="14" lengthAdjust="spacing" textLength="133.5264" x="26" y="107.5264">SparsePoly(int, int)</text><rect fill="#F24D5C" height="6" style="stroke:#C82930;stroke-width:1.0;" width="6" x="14" y="117.4766"/><text fill="#000000" font-family="sans-serif" font-size="14" lengthAdjust="spacing" textLength="172.6143" x="26" y="123.8232">SparsePoly(List&lt;Term&gt;)</text><rect fill="#F24D5C" height="6" style="stroke:#C82930;stroke-width:1.0;" width="6" x="14" y="133.7734"/><text fill="#000000" font-family="sans-serif" font-size="14" lengthAdjust="spacing" text-decoration="underline" textLength="245.7178" x="26" y="140.1201">findByDegree(List&lt;Term&gt;, int): int</text><ellipse cx="17" cy="153.0703" fill="#84BE84" rx="3" ry="3" style="stroke:#038048;stroke-width:1.0;"/><text fill="#000000" font-family="sans-serif" font-size="14" lengthAdjust="spacing" textLength="91.3281" x="26" y="156.417">coeff(int): int</text><ellipse cx="17" cy="169.3672" fill="#84BE84" rx="3" ry="3" style="stroke:#038048;stroke-width:1.0;"/><text fill="#000000" font-family="sans-serif" font-size="14" lengthAdjust="spacing" textLength="87.7119" x="26" y="172.7139">degree(): int</text><rect fill="#F24D5C" height="6" style="stroke:#C82930;stroke-width:1.0;" width="6" x="14" y="182.6641"/><text fill="#000000" font-family="sans-serif" font-size="14" lengthAdjust="spacing" text-decoration="underline" textLength="242.5801" x="26" y="189.0107">addTerm(List&lt;Term&gt;, Term): void</text><ellipse cx="17" cy="201.9609" fill="#84BE84" rx="3" ry="3" style="stroke:#038048;stroke-width:1.0;"/><text fill="#000000" font-family="sans-serif" font-size="14" lengthAdjust="spacing" textLength="200.8398" x="26" y="205.3076">add(SparsePoly): SparsePoly</text><ellipse cx="17" cy="218.2578" fill="#84BE84" rx="3" ry="3" style="stroke:#038048;stroke-width:1.0;"/><text fill="#000000" font-family="sans-serif" font-size="14" lengthAdjust="spacing" textLength="200.8877" x="26" y="221.6045">mul(SparsePoly): SparsePoly</text><ellipse cx="17" cy="234.5547" fill="#84BE84" rx="3" ry="3" style="stroke:#038048;stroke-width:1.0;"/><text fill="#000000" font-family="sans-serif" font-size="14" lengthAdjust="spacing" textLength="199.541" x="26" y="237.9014">sub(SparsePoly): SparsePoly</text><ellipse cx="17" cy="250.8516" fill="#84BE84" rx="3" ry="3" style="stroke:#038048;stroke-width:1.0;"/><text fill="#000000" font-family="sans-serif" font-size="14" lengthAdjust="spacing" textLength="139.8564" x="26" y="254.1982">minus(): SparsePoly</text></g></a><!--class it.unimi.di.prog2.s09.SparsePoly.Term--><a href="SparsePoly.Term.html" target="_top" title="SparsePoly.Term.html" xlink:actuate="onRequest" xlink:href="SparsePoly.Term.html" xlink:show="new" xlink:title="SparsePoly.Term.html" xlink:type="simple"><g id="elem_it.unimi.di.prog2.s09.SparsePoly.Term"><rect codeLine="21" fill="#F1F1F1" height="37.9375" id="it.unimi.di.prog2.s09.SparsePoly.Term" rx="2.5" ry="2.5" style="stroke:#181818;stroke-width:0.5;" width="150.207" x="67" y="298"/><ellipse cx="82" cy="316.9688" fill="#ADD1B2" rx="11" ry="11" style="stroke:#181818;stroke-width:1.0;"/><path d="M84.9688,322.6094 Q84.3906,322.9063 83.75,323.0469 Q83.1094,323.2031 82.4063,323.2031 Q79.9063,323.2031 78.5781,321.5625 Q77.2656,319.9063 77.2656,316.7813 Q77.2656,313.6563 78.5781,312 Q79.9063,310.3438 82.4063,310.3438 Q83.1094,310.3438 83.75,310.5 Q84.4063,310.6563 84.9688,310.9531 L84.9688,313.6719 Q84.3438,313.0938 83.75,312.8281 Q83.1563,312.5469 82.5313,312.5469 Q81.1875,312.5469 80.5,313.625 Q79.8125,314.6875 79.8125,316.7813 Q79.8125,318.875 80.5,319.9531 Q81.1875,321.0156 82.5313,321.0156 Q83.1563,321.0156 83.75,320.75 Q84.3438,320.4688 84.9688,319.8906 L84.9688,322.6094 Z " fill="#000000"/><text fill="#000000" font-family="sans-serif" font-size="14" lengthAdjust="spacing" textLength="118.207" x="96" y="315.9951">SparsePoly.Term</text><text fill="#000000" font-family="sans-serif" font-size="10" lengthAdjust="spacing" textLength="103.7354" x="103.2358" y="328.5791">it.unimi.di.prog2.s09</text></g></a><ellipse cx="142" cy="270.1111" fill="#FFFFFF" rx="8" ry="8" style="stroke:#181818;stroke-width:1.0;"/><line style="stroke:#181818;stroke-width:1.0;" x1="142" x2="142" y1="278.1111" y2="262.1111"/><line style="stroke:#181818;stroke-width:1.0;" x1="134" x2="150" y1="270.1111" y2="270.1111"/><path d="M142,278.1111 C142,291.7703 142,288.1154 142,297.5328 " fill="none" style="stroke:#181818;stroke-width:1.0;"/><text fill="#888888" font-family="sans-serif" font-size="10" lengthAdjust="spacing" textLength="3.1787" x="136.9106" y="339.2822">&#160;</text><text fill="#888888" font-family="sans-serif" font-size="10" lengthAdjust="spacing" textLength="183.0908" x="46.9546" y="350.9229">UMLDoclet 2.2.0, PlantUML 1.2024.6</text><!--SRC=[hPDFQy904CNl_HHJeH3HB5PwgOY7uj62O7jI3zliH1VsJyXiX5JyxjrDfAjMq4DpsCs-tyoR3Rm003mM9Tze3ehNjd906Xqt_E718o1qOBX6AdY62onuoPqjmLY33TzAWO2wS3Na4fMWIzMRRQsN6prJd0WwOvBVE7f-cIoy7-7SgdfbZk9W8XshZDII2ScAqcw6Z0Ql7U04LmcB9h1SnWFREgtMQzWtayEJEYmrZM0coOq__Fla5_LYNzAzgahZ-k2NIDCJ6YqZtvFZJcO7I7Dfn5iznKs9U5BQ-et26aTc5lCykG94stuXno5SYE1wvXystx2pKaGZNvZ4gtiS3x58L-fs4LLVTpX9Kr7o5nvk98A5o_zBB1gdysm4vHYGDfatezLBq_i6jP-5neSDScl3jZAVxxEfpPJ_cOPio0Pzc2jkd5VXQOSbIMkIxWy0]--></g></svg>