<svg xmlns="http://www.w3.org/2000/svg" xmlns:xlink="http://www.w3.org/1999/xlink" contentStyleType="text/css" height="169px" preserveAspectRatio="none" style="width:459px;height:169px;background:#FFFFFF;" version="1.1" viewBox="0 0 459 169" width="459px" zoomAndPan="magnify"><defs/><g><!--cluster it.unimi.di.prog2.s06--><g id="cluster_it.unimi.di.prog2.s06"><path d="M16.5,4 L183.3262,4 A3.75,3.75 0 0 1 185.8262,6.5 L192.8262,26.2969 L449.5,26.2969 A2.5,2.5 0 0 1 452,28.7969 L452,133.5 A2.5,2.5 0 0 1 449.5,136 L16.5,136 A2.5,2.5 0 0 1 14,133.5 L14,6.5 A2.5,2.5 0 0 1 16.5,4 " fill="none" style="stroke:#000000;stroke-width:1.5;"/><line style="stroke:#000000;stroke-width:1.5;" x1="14" x2="192.8262" y1="26.2969" y2="26.2969"/><text fill="#000000" font-family="sans-serif" font-size="14" font-weight="bold" lengthAdjust="spacing" textLength="165.8262" x="18" y="18.9951">it.unimi.di.prog2.s06</text></g><!--class RadiciClient--><a href="RadiciClient.html" target="_top" title="RadiciClient.html" xlink:actuate="onRequest" xlink:href="RadiciClient.html" xlink:show="new" xlink:title="RadiciClient.html" xlink:type="simple"><g id="elem_RadiciClient"><rect codeLine="6" fill="#F1F1F1" height="64.2969" id="RadiciClient" rx="2.5" ry="2.5" style="stroke:#181818;stroke-width:0.5;" width="163.4023" x="280.5" y="47.5"/><ellipse cx="317.191" cy="63.5" fill="#ADD1B2" rx="11" ry="11" style="stroke:#181818;stroke-width:1.0;"/><path d="M320.1597,69.1406 Q319.5816,69.4375 318.941,69.5781 Q318.3003,69.7344 317.5972,69.7344 Q315.0972,69.7344 313.7691,68.0938 Q312.4566,66.4375 312.4566,63.3125 Q312.4566,60.1875 313.7691,58.5313 Q315.0972,56.875 317.5972,56.875 Q318.3003,56.875 318.941,57.0313 Q319.5972,57.1875 320.1597,57.4844 L320.1597,60.2031 Q319.5347,59.625 318.941,59.3594 Q318.3472,59.0781 317.7222,59.0781 Q316.3785,59.0781 315.691,60.1563 Q315.0035,61.2188 315.0035,63.3125 Q315.0035,65.4063 315.691,66.4844 Q316.3785,67.5469 317.7222,67.5469 Q318.3472,67.5469 318.941,67.2813 Q319.5347,67 320.1597,66.4219 L320.1597,69.1406 Z " fill="#000000"/><text fill="#000000" font-family="sans-serif" font-size="14" lengthAdjust="spacing" textLength="83.2002" x="336.0112" y="68.3467">RadiciClient</text><line style="stroke:#181818;stroke-width:0.5;" x1="281.5" x2="442.9023" y1="79.5" y2="79.5"/><line style="stroke:#181818;stroke-width:0.5;" x1="281.5" x2="442.9023" y1="87.5" y2="87.5"/><ellipse cx="291.5" cy="101.1484" fill="#84BE84" rx="3" ry="3" style="stroke:#038048;stroke-width:1.0;"/><text fill="#000000" font-family="sans-serif" font-size="14" lengthAdjust="spacing" text-decoration="underline" textLength="137.4023" x="300.5" y="104.4951">main(String[]): void</text></g></a><!--class Radici--><a href="Radici.html" target="_top" title="Radici.html" xlink:actuate="onRequest" xlink:href="Radici.html" xlink:show="new" xlink:title="Radici.html" xlink:type="simple"><g id="elem_Radici"><rect codeLine="10" fill="#F1F1F1" height="96.8906" id="Radici" rx="2.5" ry="2.5" style="stroke:#181818;stroke-width:0.5;" width="240.04" x="22" y="31"/><ellipse cx="116.4351" cy="47" fill="#ADD1B2" rx="11" ry="11" style="stroke:#181818;stroke-width:1.0;"/><path d="M119.4038,52.6406 Q118.8257,52.9375 118.1851,53.0781 Q117.5444,53.2344 116.8413,53.2344 Q114.3413,53.2344 113.0132,51.5938 Q111.7007,49.9375 111.7007,46.8125 Q111.7007,43.6875 113.0132,42.0313 Q114.3413,40.375 116.8413,40.375 Q117.5444,40.375 118.1851,40.5313 Q118.8413,40.6875 119.4038,40.9844 L119.4038,43.7031 Q118.7788,43.125 118.1851,42.8594 Q117.5913,42.5781 116.9663,42.5781 Q115.6226,42.5781 114.9351,43.6563 Q114.2476,44.7188 114.2476,46.8125 Q114.2476,48.9063 114.9351,49.9844 Q115.6226,51.0469 116.9663,51.0469 Q117.5913,51.0469 118.1851,50.7813 Q118.7788,50.5 119.4038,49.9219 L119.4038,52.6406 Z " fill="#000000"/><text fill="#000000" font-family="sans-serif" font-size="14" lengthAdjust="spacing" textLength="42.6699" x="136.9351" y="51.8467">Radici</text><line style="stroke:#181818;stroke-width:0.5;" x1="23" x2="261.04" y1="63" y2="63"/><ellipse cx="33" cy="76.6484" fill="none" rx="3" ry="3" style="stroke:#038048;stroke-width:1.0;"/><text fill="#000000" font-family="sans-serif" font-size="14" lengthAdjust="spacing" text-decoration="underline" textLength="116.4775" x="42" y="79.9951">EPSILON: double</text><line style="stroke:#181818;stroke-width:0.5;" x1="23" x2="261.04" y1="87.2969" y2="87.2969"/><ellipse cx="33" cy="100.9453" fill="#84BE84" rx="3" ry="3" style="stroke:#038048;stroke-width:1.0;"/><text fill="#000000" font-family="sans-serif" font-size="14" lengthAdjust="spacing" text-decoration="underline" textLength="214.04" x="42" y="104.292">radiceParziale(double): double</text><ellipse cx="33" cy="117.2422" fill="#84BE84" rx="3" ry="3" style="stroke:#038048;stroke-width:1.0;"/><text fill="#000000" font-family="sans-serif" font-size="14" lengthAdjust="spacing" text-decoration="underline" textLength="202.6309" x="42" y="120.5889">radiceTotale(double): double</text></g></a><text fill="#888888" font-family="sans-serif" font-size="10" lengthAdjust="spacing" textLength="3.1787" x="219.9106" y="147.2822">&#160;</text><text fill="#888888" font-family="sans-serif" font-size="10" lengthAdjust="spacing" textLength="183.0908" x="129.9546" y="158.9229">UMLDoclet 2.2.0, PlantUML 1.2024.6</text><!--SRC=[ZL0zJyD03DtxAyo0b8ZgL6LWo0eCI0KY2bF8O2ucjRYFwCwf15N-EvSMLHs0ui6MdzzxjWm0SDO7x2o2mGy_24HBWWvdQGAHKayz1XGVe2ndExH7_OuT0OiQ75jMBQi- -AvGSN49sprf2cqmHdZ4bZLV6IOdKDV7hLgBDKsJD70KsoWeh4UuiCWkMqbWrzLDNiB6StkWZZylEgmuPNvJhMwN3_Sbj7vuDVGBAqnUL67uP3IKxRdvlqHFNlwIVDy_xh9Etw00RzvFvSKztosllJRf_uKgr68EbK4d2ONp3ON8tcNv5m00]--></g></svg>