<svg xmlns="http://www.w3.org/2000/svg" xmlns:xlink="http://www.w3.org/1999/xlink" contentStyleType="text/css" height="367px" preserveAspectRatio="none" style="width:569px;height:367px;background:#FFFFFF;" version="1.1" viewBox="0 0 569 367" width="569px" zoomAndPan="magnify"><defs/><g><!--cluster it.unimi.di.prog2.h08--><g id="cluster_it.unimi.di.prog2.h08"><path d="M16.5,4 L184.96,4 A3.75,3.75 0 0 1 187.46,6.5 L194.46,26.2969 L559.5,26.2969 A2.5,2.5 0 0 1 562,28.7969 L562,331.5 A2.5,2.5 0 0 1 559.5,334 L16.5,334 A2.5,2.5 0 0 1 14,331.5 L14,6.5 A2.5,2.5 0 0 1 16.5,4 " fill="none" style="stroke:#000000;stroke-width:1.5;"/><line style="stroke:#000000;stroke-width:1.5;" x1="14" x2="194.46" y1="26.2969" y2="26.2969"/><text fill="#000000" font-family="sans-serif" font-size="14" font-weight="bold" lengthAdjust="spacing" textLength="167.46" x="18" y="18.9951">it.unimi.di.prog2.h08</text></g><!--class Polys--><a href="Polys.html" target="_top" title="Polys.html" xlink:actuate="onRequest" xlink:href="Polys.html" xlink:show="new" xlink:title="Polys.html" xlink:type="simple"><g id="elem_Polys"><rect codeLine="6" fill="#F1F1F1" height="64.2969" id="Polys" rx="2.5" ry="2.5" style="stroke:#181818;stroke-width:0.5;" width="127.0898" x="22.5" y="31"/><ellipse cx="63.876" cy="47" fill="#ADD1B2" rx="11" ry="11" style="stroke:#181818;stroke-width:1.0;"/><path d="M66.8447,52.6406 Q66.2666,52.9375 65.626,53.0781 Q64.9854,53.2344 64.2822,53.2344 Q61.7822,53.2344 60.4541,51.5938 Q59.1416,49.9375 59.1416,46.8125 Q59.1416,43.6875 60.4541,42.0313 Q61.7822,40.375 64.2822,40.375 Q64.9854,40.375 65.626,40.5313 Q66.2822,40.6875 66.8447,40.9844 L66.8447,43.7031 Q66.2197,43.125 65.626,42.8594 Q65.0322,42.5781 64.4072,42.5781 Q63.0635,42.5781 62.376,43.6563 Q61.6885,44.7188 61.6885,46.8125 Q61.6885,48.9063 62.376,49.9844 Q63.0635,51.0469 64.4072,51.0469 Q65.0322,51.0469 65.626,50.7813 Q66.2197,50.5 66.8447,49.9219 L66.8447,52.6406 Z " fill="#000000"/><text fill="#000000" font-family="sans-serif" font-size="14" lengthAdjust="spacing" textLength="36.4766" x="83.7373" y="51.8467">Polys</text><line style="stroke:#181818;stroke-width:0.5;" x1="23.5" x2="148.5898" y1="63" y2="63"/><line style="stroke:#181818;stroke-width:0.5;" x1="23.5" x2="148.5898" y1="71" y2="71"/><ellipse cx="33.5" cy="84.6484" fill="#84BE84" rx="3" ry="3" style="stroke:#038048;stroke-width:1.0;"/><text fill="#000000" font-family="sans-serif" font-size="14" lengthAdjust="spacing" text-decoration="underline" textLength="101.0898" x="42.5" y="87.9951">diff(Poly): Poly</text></g></a><!--class IntSets--><a href="IntSets.html" target="_top" title="IntSets.html" xlink:actuate="onRequest" xlink:href="IntSets.html" xlink:show="new" xlink:title="IntSets.html" xlink:type="simple"><g id="elem_IntSets"><rect codeLine="10" fill="#F1F1F1" height="64.2969" id="IntSets" rx="2.5" ry="2.5" style="stroke:#181818;stroke-width:0.5;" width="204.9922" x="167.5" y="31"/><ellipse cx="241.3589" cy="47" fill="#ADD1B2" rx="11" ry="11" style="stroke:#181818;stroke-width:1.0;"/><path d="M244.3276,52.6406 Q243.7495,52.9375 243.1089,53.0781 Q242.4683,53.2344 241.7651,53.2344 Q239.2651,53.2344 237.937,51.5938 Q236.6245,49.9375 236.6245,46.8125 Q236.6245,43.6875 237.937,42.0313 Q239.2651,40.375 241.7651,40.375 Q242.4683,40.375 243.1089,40.5313 Q243.7651,40.6875 244.3276,40.9844 L244.3276,43.7031 Q243.7026,43.125 243.1089,42.8594 Q242.5151,42.5781 241.8901,42.5781 Q240.5464,42.5781 239.8589,43.6563 Q239.1714,44.7188 239.1714,46.8125 Q239.1714,48.9063 239.8589,49.9844 Q240.5464,51.0469 241.8901,51.0469 Q242.5151,51.0469 243.1089,50.7813 Q243.7026,50.5 244.3276,49.9219 L244.3276,52.6406 Z " fill="#000000"/><text fill="#000000" font-family="sans-serif" font-size="14" lengthAdjust="spacing" textLength="48.7744" x="261.8589" y="51.8467">IntSets</text><line style="stroke:#181818;stroke-width:0.5;" x1="168.5" x2="371.4922" y1="63" y2="63"/><line style="stroke:#181818;stroke-width:0.5;" x1="168.5" x2="371.4922" y1="71" y2="71"/><ellipse cx="178.5" cy="84.6484" fill="#84BE84" rx="3" ry="3" style="stroke:#038048;stroke-width:1.0;"/><text fill="#000000" font-family="sans-serif" font-size="14" lengthAdjust="spacing" text-decoration="underline" textLength="178.9922" x="187.5" y="87.9951">getElements(int[]): IntSet</text></g></a><!--class IntSetsClient--><a href="IntSetsClient.html" target="_top" title="IntSetsClient.html" xlink:actuate="onRequest" xlink:href="IntSetsClient.html" xlink:show="new" xlink:title="IntSetsClient.html" xlink:type="simple"><g id="elem_IntSetsClient"><rect codeLine="14" fill="#F1F1F1" height="64.2969" id="IntSetsClient" rx="2.5" ry="2.5" style="stroke:#181818;stroke-width:0.5;" width="163.4023" x="390.5" y="31"/><ellipse cx="424.4439" cy="47" fill="#ADD1B2" rx="11" ry="11" style="stroke:#181818;stroke-width:1.0;"/><path d="M427.4127,52.6406 Q426.8346,52.9375 426.1939,53.0781 Q425.5533,53.2344 424.8502,53.2344 Q422.3502,53.2344 421.0221,51.5938 Q419.7096,49.9375 419.7096,46.8125 Q419.7096,43.6875 421.0221,42.0313 Q422.3502,40.375 424.8502,40.375 Q425.5533,40.375 426.1939,40.5313 Q426.8502,40.6875 427.4127,40.9844 L427.4127,43.7031 Q426.7877,43.125 426.1939,42.8594 Q425.6002,42.5781 424.9752,42.5781 Q423.6314,42.5781 422.9439,43.6563 Q422.2564,44.7188 422.2564,46.8125 Q422.2564,48.9063 422.9439,49.9844 Q423.6314,51.0469 424.9752,51.0469 Q425.6002,51.0469 426.1939,50.7813 Q426.7877,50.5 427.4127,49.9219 L427.4127,52.6406 Z " fill="#000000"/><text fill="#000000" font-family="sans-serif" font-size="14" lengthAdjust="spacing" textLength="89.3047" x="442.6537" y="51.8467">IntSetsClient</text><line style="stroke:#181818;stroke-width:0.5;" x1="391.5" x2="552.9023" y1="63" y2="63"/><line style="stroke:#181818;stroke-width:0.5;" x1="391.5" x2="552.9023" y1="71" y2="71"/><ellipse cx="401.5" cy="84.6484" fill="#84BE84" rx="3" ry="3" style="stroke:#038048;stroke-width:1.0;"/><text fill="#000000" font-family="sans-serif" font-size="14" lengthAdjust="spacing" text-decoration="underline" textLength="137.4023" x="410.5" y="87.9951">main(String[]): void</text></g></a><!--class IntSet--><a href="IntSet.html" target="_top" title="IntSet.html" xlink:actuate="onRequest" xlink:href="IntSet.html" xlink:show="new" xlink:title="IntSet.html" xlink:type="simple"><g id="elem_IntSet"><rect codeLine="18" fill="#F1F1F1" height="129.4844" id="IntSet" rx="2.5" ry="2.5" style="stroke:#181818;stroke-width:0.5;" width="147.4404" x="22.5" y="164"/><ellipse cx="71.23" cy="180" fill="#ADD1B2" rx="11" ry="11" style="stroke:#181818;stroke-width:1.0;"/><path d="M74.1987,185.6406 Q73.6206,185.9375 72.98,186.0781 Q72.3394,186.2344 71.6362,186.2344 Q69.1362,186.2344 67.8081,184.5938 Q66.4956,182.9375 66.4956,179.8125 Q66.4956,176.6875 67.8081,175.0313 Q69.1362,173.375 71.6362,173.375 Q72.3394,173.375 72.98,173.5313 Q73.6362,173.6875 74.1987,173.9844 L74.1987,176.7031 Q73.5737,176.125 72.98,175.8594 Q72.3862,175.5781 71.7612,175.5781 Q70.4175,175.5781 69.73,176.6563 Q69.0425,177.7188 69.0425,179.8125 Q69.0425,181.9063 69.73,182.9844 Q70.4175,184.0469 71.7612,184.0469 Q72.3862,184.0469 72.98,183.7813 Q73.5737,183.5 74.1987,182.9219 L74.1987,185.6406 Z " fill="#000000"/><text fill="#000000" font-family="sans-serif" font-size="14" lengthAdjust="spacing" textLength="41.4805" x="91.73" y="184.8467">IntSet</text><line style="stroke:#181818;stroke-width:0.5;" x1="23.5" x2="168.9404" y1="196" y2="196"/><line style="stroke:#181818;stroke-width:0.5;" x1="23.5" x2="168.9404" y1="204" y2="204"/><ellipse cx="33.5" cy="217.6484" fill="#84BE84" rx="3" ry="3" style="stroke:#038048;stroke-width:1.0;"/><text fill="#000000" font-family="sans-serif" font-size="14" lengthAdjust="spacing" textLength="107.8848" x="42.5" y="220.9951">insert(int): void</text><ellipse cx="33.5" cy="233.9453" fill="#84BE84" rx="3" ry="3" style="stroke:#038048;stroke-width:1.0;"/><text fill="#000000" font-family="sans-serif" font-size="14" lengthAdjust="spacing" textLength="121.4404" x="42.5" y="237.292">remove(int): void</text><ellipse cx="33.5" cy="250.2422" fill="#84BE84" rx="3" ry="3" style="stroke:#038048;stroke-width:1.0;"/><text fill="#000000" font-family="sans-serif" font-size="14" lengthAdjust="spacing" textLength="118.501" x="42.5" y="253.5889">isIn(int): boolean</text><ellipse cx="33.5" cy="266.5391" fill="#84BE84" rx="3" ry="3" style="stroke:#038048;stroke-width:1.0;"/><text fill="#000000" font-family="sans-serif" font-size="14" lengthAdjust="spacing" textLength="65.4883" x="42.5" y="269.8857">size(): int</text><ellipse cx="33.5" cy="282.8359" fill="#84BE84" rx="3" ry="3" style="stroke:#038048;stroke-width:1.0;"/><text fill="#000000" font-family="sans-serif" font-size="14" lengthAdjust="spacing" textLength="87.9512" x="42.5" y="286.1826">choose(): int</text></g></a><!--class Poly--><a href="Poly.html" target="_top" title="Poly.html" xlink:actuate="onRequest" xlink:href="Poly.html" xlink:show="new" xlink:title="Poly.html" xlink:type="simple"><g id="elem_Poly"><rect codeLine="26" fill="#F1F1F1" height="194.6719" id="Poly" rx="2.5" ry="2.5" style="stroke:#181818;stroke-width:0.5;" width="337.8213" x="188" y="131"/><ellipse cx="338.0693" cy="147" fill="#ADD1B2" rx="11" ry="11" style="stroke:#181818;stroke-width:1.0;"/><path d="M341.0381,152.6406 Q340.46,152.9375 339.8193,153.0781 Q339.1787,153.2344 338.4756,153.2344 Q335.9756,153.2344 334.6475,151.5938 Q333.335,149.9375 333.335,146.8125 Q333.335,143.6875 334.6475,142.0313 Q335.9756,140.375 338.4756,140.375 Q339.1787,140.375 339.8193,140.5313 Q340.4756,140.6875 341.0381,140.9844 L341.0381,143.7031 Q340.4131,143.125 339.8193,142.8594 Q339.2256,142.5781 338.6006,142.5781 Q337.2568,142.5781 336.5693,143.6563 Q335.8818,144.7188 335.8818,146.8125 Q335.8818,148.9063 336.5693,149.9844 Q337.2568,151.0469 338.6006,151.0469 Q339.2256,151.0469 339.8193,150.7813 Q340.4131,150.5 341.0381,149.9219 L341.0381,152.6406 Z " fill="#000000"/><text fill="#000000" font-family="sans-serif" font-size="14" lengthAdjust="spacing" textLength="29.1826" x="358.5693" y="151.8467">Poly</text><line style="stroke:#181818;stroke-width:0.5;" x1="189" x2="524.8213" y1="163" y2="163"/><line style="stroke:#181818;stroke-width:0.5;" x1="189" x2="524.8213" y1="171" y2="171"/><ellipse cx="199" cy="184.6484" fill="#84BE84" rx="3" ry="3" style="stroke:#038048;stroke-width:1.0;"/><text fill="#000000" font-family="sans-serif" font-size="14" lengthAdjust="spacing" textLength="40.1064" x="208" y="187.9951">Poly()</text><ellipse cx="199" cy="200.9453" fill="#84BE84" rx="3" ry="3" style="stroke:#038048;stroke-width:1.0;"/><text fill="#000000" font-family="sans-serif" font-size="14" lengthAdjust="spacing" textLength="85.5107" x="208" y="204.292">Poly(int, int)</text><ellipse cx="199" cy="217.2422" fill="#84BE84" rx="3" ry="3" style="stroke:#038048;stroke-width:1.0;"/><text fill="#000000" font-family="sans-serif" font-size="14" lengthAdjust="spacing" text-decoration="underline" textLength="311.8213" x="208" y="220.5889">monomialWithCoeffAndDegree(int, int): Poly</text><ellipse cx="199" cy="233.5391" fill="#84BE84" rx="3" ry="3" style="stroke:#038048;stroke-width:1.0;"/><text fill="#000000" font-family="sans-serif" font-size="14" lengthAdjust="spacing" textLength="87.7119" x="208" y="236.8857">degree(): int</text><ellipse cx="199" cy="249.8359" fill="#84BE84" rx="3" ry="3" style="stroke:#038048;stroke-width:1.0;"/><text fill="#000000" font-family="sans-serif" font-size="14" lengthAdjust="spacing" textLength="91.3281" x="208" y="253.1826">coeff(int): int</text><ellipse cx="199" cy="266.1328" fill="#84BE84" rx="3" ry="3" style="stroke:#038048;stroke-width:1.0;"/><text fill="#000000" font-family="sans-serif" font-size="14" lengthAdjust="spacing" textLength="104.8086" x="208" y="269.4795">add(Poly): Poly</text><ellipse cx="199" cy="282.4297" fill="#84BE84" rx="3" ry="3" style="stroke:#038048;stroke-width:1.0;"/><text fill="#000000" font-family="sans-serif" font-size="14" lengthAdjust="spacing" textLength="104.8564" x="208" y="285.7764">mul(Poly): Poly</text><ellipse cx="199" cy="298.7266" fill="#84BE84" rx="3" ry="3" style="stroke:#038048;stroke-width:1.0;"/><text fill="#000000" font-family="sans-serif" font-size="14" lengthAdjust="spacing" textLength="103.5098" x="208" y="302.0732">sub(Poly): Poly</text><ellipse cx="199" cy="315.0234" fill="#84BE84" rx="3" ry="3" style="stroke:#038048;stroke-width:1.0;"/><text fill="#000000" font-family="sans-serif" font-size="14" lengthAdjust="spacing" textLength="91.8408" x="208" y="318.3701">minus(): Poly</text></g></a><text fill="#888888" font-family="sans-serif" font-size="10" lengthAdjust="spacing" textLength="3.1787" x="274.9106" y="345.2822">&#160;</text><text fill="#888888" font-family="sans-serif" font-size="10" lengthAdjust="spacing" textLength="183.0908" x="184.9546" y="356.9229">UMLDoclet 2.2.0, PlantUML 1.2024.6</text><!--SRC=[XP9DRy8m38Rl_0hlCAdLK8KuJTmcs05fav3Gj0FZ45gtjPR4LP8YCSH_N_eX6D2kEJI97_jzqyG000-54PaI8CM1ImTMeHDQZ3m1YtwFXJ32iO7PR5H72n5_Ymo1N5HgKXGb51M6iscKJvxXs2HL8vR2MbYnF5ZOREevofsIswtFWZ_ZQ9rm59_WAQ4q3QhCS5ONdjDEjx9BxTReAk5sDIITeNkLg50x6v1scwstQ4e7JUQIVDd5gjaF6If1EbWxGpghpVPCoP3LsQDR_8cqHUEgyzyArjYWuZtsOh9BtS8TiqIXhxcb7mmyz2dN8CwPxHqwTJrr-z8zvwzG47R4lEwu4W_xBfCrAnBoarm-PqpJ5vqiC3E8bzARbgd5aoQdywSgcVOwxg18aiu-hA4gPJ-qvUwVIjAb3NgQ-rH_OzzQQ21bhgOl_V7-jk1O-jwOHjDeCeQL5DhvA3pkqLXY7OI_]--></g></svg>