<svg xmlns="http://www.w3.org/2000/svg" xmlns:xlink="http://www.w3.org/1999/xlink" contentStyleType="text/css" height="286px" preserveAspectRatio="none" style="width:519px;height:286px;background:#FFFFFF;" version="1.1" viewBox="0 0 519 286" width="519px" zoomAndPan="magnify"><defs/><g><!--cluster it.unimi.di.prog2.h05--><g id="cluster_it.unimi.di.prog2.h05"><path d="M16.5,4 L184.96,4 A3.75,3.75 0 0 1 187.46,6.5 L194.46,26.2969 L509.5,26.2969 A2.5,2.5 0 0 1 512,28.7969 L512,250.5 A2.5,2.5 0 0 1 509.5,253 L16.5,253 A2.5,2.5 0 0 1 14,250.5 L14,6.5 A2.5,2.5 0 0 1 16.5,4 " fill="none" style="stroke:#000000;stroke-width:1.5;"/><line style="stroke:#000000;stroke-width:1.5;" x1="14" x2="194.46" y1="26.2969" y2="26.2969"/><text fill="#000000" font-family="sans-serif" font-size="14" font-weight="bold" lengthAdjust="spacing" textLength="167.46" x="18" y="18.9951">it.unimi.di.prog2.h05</text></g><!--class GrigliaIrregolare2--><a href="GrigliaIrregolare2.html" target="_top" title="GrigliaIrregolare2.html" xlink:actuate="onRequest" xlink:href="GrigliaIrregolare2.html" xlink:show="new" xlink:title="GrigliaIrregolare2.html" xlink:type="simple"><g id="elem_GrigliaIrregolare2"><rect codeLine="6" fill="#F1F1F1" height="64.2969" id="GrigliaIrregolare2" rx="2.5" ry="2.5" style="stroke:#181818;stroke-width:0.5;" width="163.4023" x="22.5" y="39.5"/><ellipse cx="41.1954" cy="55.5" fill="#ADD1B2" rx="11" ry="11" style="stroke:#181818;stroke-width:1.0;"/><path d="M44.1641,61.1406 Q43.586,61.4375 42.9454,61.5781 Q42.3047,61.7344 41.6016,61.7344 Q39.1016,61.7344 37.7735,60.0938 Q36.461,58.4375 36.461,55.3125 Q36.461,52.1875 37.7735,50.5313 Q39.1016,48.875 41.6016,48.875 Q42.3047,48.875 42.9454,49.0313 Q43.6016,49.1875 44.1641,49.4844 L44.1641,52.2031 Q43.5391,51.625 42.9454,51.3594 Q42.3516,51.0781 41.7266,51.0781 Q40.3829,51.0781 39.6954,52.1563 Q39.0079,53.2188 39.0079,55.3125 Q39.0079,57.4063 39.6954,58.4844 Q40.3829,59.5469 41.7266,59.5469 Q42.3516,59.5469 42.9454,59.2813 Q43.5391,59 44.1641,58.4219 L44.1641,61.1406 Z " fill="#000000"/><text fill="#000000" font-family="sans-serif" font-size="14" lengthAdjust="spacing" textLength="123.1904" x="56.0166" y="60.3467">GrigliaIrregolare2</text><line style="stroke:#181818;stroke-width:0.5;" x1="23.5" x2="184.9023" y1="71.5" y2="71.5"/><line style="stroke:#181818;stroke-width:0.5;" x1="23.5" x2="184.9023" y1="79.5" y2="79.5"/><ellipse cx="33.5" cy="93.1484" fill="#84BE84" rx="3" ry="3" style="stroke:#038048;stroke-width:1.0;"/><text fill="#000000" font-family="sans-serif" font-size="14" lengthAdjust="spacing" text-decoration="underline" textLength="137.4023" x="42.5" y="96.4951">main(String[]): void</text></g></a><!--class GrigliaIrregolare3--><a href="GrigliaIrregolare3.html" target="_top" title="GrigliaIrregolare3.html" xlink:actuate="onRequest" xlink:href="GrigliaIrregolare3.html" xlink:show="new" xlink:title="GrigliaIrregolare3.html" xlink:type="simple"><g id="elem_GrigliaIrregolare3"><rect codeLine="10" fill="#F1F1F1" height="80.5938" id="GrigliaIrregolare3" rx="2.5" ry="2.5" style="stroke:#181818;stroke-width:0.5;" width="299.7861" x="204" y="31"/><ellipse cx="288.0479" cy="47" fill="#ADD1B2" rx="11" ry="11" style="stroke:#181818;stroke-width:1.0;"/><path d="M291.0166,52.6406 Q290.4385,52.9375 289.7979,53.0781 Q289.1572,53.2344 288.4541,53.2344 Q285.9541,53.2344 284.626,51.5938 Q283.3135,49.9375 283.3135,46.8125 Q283.3135,43.6875 284.626,42.0313 Q285.9541,40.375 288.4541,40.375 Q289.1572,40.375 289.7979,40.5313 Q290.4541,40.6875 291.0166,40.9844 L291.0166,43.7031 Q290.3916,43.125 289.7979,42.8594 Q289.2041,42.5781 288.5791,42.5781 Q287.2354,42.5781 286.5479,43.6563 Q285.8604,44.7188 285.8604,46.8125 Q285.8604,48.9063 286.5479,49.9844 Q287.2354,51.0469 288.5791,51.0469 Q289.2041,51.0469 289.7979,50.7813 Q290.3916,50.5 291.0166,49.9219 L291.0166,52.6406 Z " fill="#000000"/><text fill="#000000" font-family="sans-serif" font-size="14" lengthAdjust="spacing" textLength="123.1904" x="308.5479" y="51.8467">GrigliaIrregolare3</text><line style="stroke:#181818;stroke-width:0.5;" x1="205" x2="502.7861" y1="63" y2="63"/><line style="stroke:#181818;stroke-width:0.5;" x1="205" x2="502.7861" y1="71" y2="71"/><ellipse cx="215" cy="84.6484" fill="#84BE84" rx="3" ry="3" style="stroke:#038048;stroke-width:1.0;"/><text fill="#000000" font-family="sans-serif" font-size="14" lengthAdjust="spacing" text-decoration="underline" textLength="273.7861" x="224" y="87.9951">appartiene(int[], int[], int, int): boolean</text><ellipse cx="215" cy="100.9453" fill="#84BE84" rx="3" ry="3" style="stroke:#038048;stroke-width:1.0;"/><text fill="#000000" font-family="sans-serif" font-size="14" lengthAdjust="spacing" text-decoration="underline" textLength="137.4023" x="224" y="104.292">main(String[]): void</text></g></a><!--class GrigliaIrregolare1--><a href="GrigliaIrregolare1.html" target="_top" title="GrigliaIrregolare1.html" xlink:actuate="onRequest" xlink:href="GrigliaIrregolare1.html" xlink:show="new" xlink:title="GrigliaIrregolare1.html" xlink:type="simple"><g id="elem_GrigliaIrregolare1"><rect codeLine="15" fill="#F1F1F1" height="64.2969" id="GrigliaIrregolare1" rx="2.5" ry="2.5" style="stroke:#181818;stroke-width:0.5;" width="163.4023" x="22.5" y="164.5"/><ellipse cx="41.1954" cy="180.5" fill="#ADD1B2" rx="11" ry="11" style="stroke:#181818;stroke-width:1.0;"/><path d="M44.1641,186.1406 Q43.586,186.4375 42.9454,186.5781 Q42.3047,186.7344 41.6016,186.7344 Q39.1016,186.7344 37.7735,185.0938 Q36.461,183.4375 36.461,180.3125 Q36.461,177.1875 37.7735,175.5313 Q39.1016,173.875 41.6016,173.875 Q42.3047,173.875 42.9454,174.0313 Q43.6016,174.1875 44.1641,174.4844 L44.1641,177.2031 Q43.5391,176.625 42.9454,176.3594 Q42.3516,176.0781 41.7266,176.0781 Q40.3829,176.0781 39.6954,177.1563 Q39.0079,178.2188 39.0079,180.3125 Q39.0079,182.4063 39.6954,183.4844 Q40.3829,184.5469 41.7266,184.5469 Q42.3516,184.5469 42.9454,184.2813 Q43.5391,184 44.1641,183.4219 L44.1641,186.1406 Z " fill="#000000"/><text fill="#000000" font-family="sans-serif" font-size="14" lengthAdjust="spacing" textLength="123.1904" x="56.0166" y="185.3467">GrigliaIrregolare1</text><line style="stroke:#181818;stroke-width:0.5;" x1="23.5" x2="184.9023" y1="196.5" y2="196.5"/><line style="stroke:#181818;stroke-width:0.5;" x1="23.5" x2="184.9023" y1="204.5" y2="204.5"/><ellipse cx="33.5" cy="218.1484" fill="#84BE84" rx="3" ry="3" style="stroke:#038048;stroke-width:1.0;"/><text fill="#000000" font-family="sans-serif" font-size="14" lengthAdjust="spacing" text-decoration="underline" textLength="137.4023" x="42.5" y="221.4951">main(String[]): void</text></g></a><!--class GrigliaIrregolare4--><a href="GrigliaIrregolare4.html" target="_top" title="GrigliaIrregolare4.html" xlink:actuate="onRequest" xlink:href="GrigliaIrregolare4.html" xlink:show="new" xlink:title="GrigliaIrregolare4.html" xlink:type="simple"><g id="elem_GrigliaIrregolare4"><rect codeLine="19" fill="#F1F1F1" height="96.8906" id="GrigliaIrregolare4" rx="2.5" ry="2.5" style="stroke:#181818;stroke-width:0.5;" width="299.7861" x="204" y="148"/><ellipse cx="288.0479" cy="164" fill="#ADD1B2" rx="11" ry="11" style="stroke:#181818;stroke-width:1.0;"/><path d="M291.0166,169.6406 Q290.4385,169.9375 289.7979,170.0781 Q289.1572,170.2344 288.4541,170.2344 Q285.9541,170.2344 284.626,168.5938 Q283.3135,166.9375 283.3135,163.8125 Q283.3135,160.6875 284.626,159.0313 Q285.9541,157.375 288.4541,157.375 Q289.1572,157.375 289.7979,157.5313 Q290.4541,157.6875 291.0166,157.9844 L291.0166,160.7031 Q290.3916,160.125 289.7979,159.8594 Q289.2041,159.5781 288.5791,159.5781 Q287.2354,159.5781 286.5479,160.6563 Q285.8604,161.7188 285.8604,163.8125 Q285.8604,165.9063 286.5479,166.9844 Q287.2354,168.0469 288.5791,168.0469 Q289.2041,168.0469 289.7979,167.7813 Q290.3916,167.5 291.0166,166.9219 L291.0166,169.6406 Z " fill="#000000"/><text fill="#000000" font-family="sans-serif" font-size="14" lengthAdjust="spacing" textLength="123.1904" x="308.5479" y="168.8467">GrigliaIrregolare4</text><line style="stroke:#181818;stroke-width:0.5;" x1="205" x2="502.7861" y1="180" y2="180"/><line style="stroke:#181818;stroke-width:0.5;" x1="205" x2="502.7861" y1="188" y2="188"/><ellipse cx="215" cy="201.6484" fill="#84BE84" rx="3" ry="3" style="stroke:#038048;stroke-width:1.0;"/><text fill="#000000" font-family="sans-serif" font-size="14" lengthAdjust="spacing" text-decoration="underline" textLength="208.5576" x="224" y="204.9951">appartiene(int[], int): boolean</text><ellipse cx="215" cy="217.9453" fill="#84BE84" rx="3" ry="3" style="stroke:#038048;stroke-width:1.0;"/><text fill="#000000" font-family="sans-serif" font-size="14" lengthAdjust="spacing" text-decoration="underline" textLength="273.7861" x="224" y="221.292">appartiene(int[], int[], int, int): boolean</text><ellipse cx="215" cy="234.2422" fill="#84BE84" rx="3" ry="3" style="stroke:#038048;stroke-width:1.0;"/><text fill="#000000" font-family="sans-serif" font-size="14" lengthAdjust="spacing" text-decoration="underline" textLength="137.4023" x="224" y="237.5889">main(String[]): void</text></g></a><text fill="#888888" font-family="sans-serif" font-size="10" lengthAdjust="spacing" textLength="3.1787" x="249.9106" y="264.2822">&#160;</text><text fill="#888888" font-family="sans-serif" font-size="10" lengthAdjust="spacing" textLength="183.0908" x="159.9546" y="275.9229">UMLDoclet 2.2.0, PlantUML 1.2024.6</text><!--SRC=[lLB1IWD13BttA-AXiCKojDjwsRCW1GL1FArxYDiu3Svcbfcq86N_tUaAAhYm8BGv9CnBmdlp2030LHlGDWWEF_nU8JQaA3X97OYKtjHYGFK1YcBIeotMxsW9MCrUk66pPTC6RtEpMzp0yMle5BN36E4ki7MCcn38UeU1SYZBlw3PQUEgAkt3hpX6HUMwW-i6MR8d3Iosh6O573nllqUxKTBL4EbgZ1JRz7bb4ifOjApcy5Fwb8IyUky8vJoobqEobsVsQZr4klwNLwF-NCRXhiyrYLA0D-zFvKMU7-vlVUtIaUScDuivF3eKJIXC3nGYUybcdm00]--></g></svg>