<svg xmlns="http://www.w3.org/2000/svg" xmlns:xlink="http://www.w3.org/1999/xlink" contentStyleType="text/css" height="500px" preserveAspectRatio="none" style="width:847px;height:500px;background:#FFFFFF;" version="1.1" viewBox="0 0 847 500" width="847px" zoomAndPan="magnify"><defs/><g><!--cluster it.unimi.di.prog2.e09--><g id="cluster_it.unimi.di.prog2.e09"><path d="M16.5,4 L184.4883,4 A3.75,3.75 0 0 1 186.9883,6.5 L193.9883,26.2969 L731.5,26.2969 A2.5,2.5 0 0 1 734,28.7969 L734,464.5 A2.5,2.5 0 0 1 731.5,467 L16.5,467 A2.5,2.5 0 0 1 14,464.5 L14,6.5 A2.5,2.5 0 0 1 16.5,4 " fill="none" style="stroke:#000000;stroke-width:1.5;"/><line style="stroke:#000000;stroke-width:1.5;" x1="14" x2="193.9883" y1="26.2969" y2="26.2969"/><text fill="#000000" font-family="sans-serif" font-size="14" font-weight="bold" lengthAdjust="spacing" textLength="166.9883" x="18" y="18.9951">it.unimi.di.prog2.e09</text></g><!--cluster java.lang--><g id="cluster_java.lang"><path d="M744.5,102 L817.8721,102 A3.75,3.75 0 0 1 820.3721,104.5 L827.3721,124.2969 L837.5,124.2969 A2.5,2.5 0 0 1 840,126.7969 L840,182.5 A2.5,2.5 0 0 1 837.5,185 L744.5,185 A2.5,2.5 0 0 1 742,182.5 L742,104.5 A2.5,2.5 0 0 1 744.5,102 " fill="none" style="stroke:#000000;stroke-width:1.5;"/><line style="stroke:#000000;stroke-width:1.5;" x1="742" x2="827.3721" y1="124.2969" y2="124.2969"/><text fill="#000000" font-family="sans-serif" font-size="14" font-weight="bold" lengthAdjust="spacing" textLength="72.3721" x="746" y="116.9951">java.lang</text></g><!--class PolyClient--><a href="PolyClient.html" target="_top" title="PolyClient.html" xlink:actuate="onRequest" xlink:href="PolyClient.html" xlink:show="new" xlink:title="PolyClient.html" xlink:type="simple"><g id="elem_PolyClient"><rect codeLine="6" fill="#F1F1F1" height="48" id="PolyClient" rx="2.5" ry="2.5" style="stroke:#181818;stroke-width:0.5;" width="101.7129" x="268" y="129"/><ellipse cx="283" cy="145" fill="#ADD1B2" rx="11" ry="11" style="stroke:#181818;stroke-width:1.0;"/><path d="M285.9688,150.6406 Q285.3906,150.9375 284.75,151.0781 Q284.1094,151.2344 283.4063,151.2344 Q280.9063,151.2344 279.5781,149.5938 Q278.2656,147.9375 278.2656,144.8125 Q278.2656,141.6875 279.5781,140.0313 Q280.9063,138.375 283.4063,138.375 Q284.1094,138.375 284.75,138.5313 Q285.4063,138.6875 285.9688,138.9844 L285.9688,141.7031 Q285.3438,141.125 284.75,140.8594 Q284.1563,140.5781 283.5313,140.5781 Q282.1875,140.5781 281.5,141.6563 Q280.8125,142.7188 280.8125,144.8125 Q280.8125,146.9063 281.5,147.9844 Q282.1875,149.0469 283.5313,149.0469 Q284.1563,149.0469 284.75,148.7813 Q285.3438,148.5 285.9688,147.9219 L285.9688,150.6406 Z " fill="#000000"/><text fill="#000000" font-family="sans-serif" font-size="14" lengthAdjust="spacing" textLength="69.7129" x="297" y="149.8467">PolyClient</text><line style="stroke:#181818;stroke-width:0.5;" x1="269" x2="368.7129" y1="161" y2="161"/><line style="stroke:#181818;stroke-width:0.5;" x1="269" x2="368.7129" y1="169" y2="169"/></g></a><!--class SparsePoly--><a href="SparsePoly.html" target="_top" title="SparsePoly.html" xlink:actuate="onRequest" xlink:href="SparsePoly.html" xlink:show="new" xlink:title="SparsePoly.html" xlink:type="simple"><g id="elem_SparsePoly"><rect codeLine="8" fill="#F1F1F1" height="178.375" id="SparsePoly" rx="2.5" ry="2.5" style="stroke:#181818;stroke-width:0.5;" width="226.8877" x="22.5" y="64"/><ellipse cx="93.0947" cy="80" fill="#ADD1B2" rx="11" ry="11" style="stroke:#181818;stroke-width:1.0;"/><path d="M96.0635,85.6406 Q95.4854,85.9375 94.8447,86.0781 Q94.2041,86.2344 93.501,86.2344 Q91.001,86.2344 89.6729,84.5938 Q88.3604,82.9375 88.3604,79.8125 Q88.3604,76.6875 89.6729,75.0313 Q91.001,73.375 93.501,73.375 Q94.2041,73.375 94.8447,73.5313 Q95.501,73.6875 96.0635,73.9844 L96.0635,76.7031 Q95.4385,76.125 94.8447,75.8594 Q94.251,75.5781 93.626,75.5781 Q92.2822,75.5781 91.5947,76.6563 Q90.9072,77.7188 90.9072,79.8125 Q90.9072,81.9063 91.5947,82.9844 Q92.2822,84.0469 93.626,84.0469 Q94.251,84.0469 94.8447,83.7813 Q95.4385,83.5 96.0635,82.9219 L96.0635,85.6406 Z " fill="#000000"/><text fill="#000000" font-family="sans-serif" font-size="14" lengthAdjust="spacing" textLength="77.1982" x="113.5947" y="84.8467">SparsePoly</text><line style="stroke:#181818;stroke-width:0.5;" x1="23.5" x2="248.3877" y1="96" y2="96"/><line style="stroke:#181818;stroke-width:0.5;" x1="23.5" x2="248.3877" y1="104" y2="104"/><ellipse cx="33.5" cy="117.6484" fill="#84BE84" rx="3" ry="3" style="stroke:#038048;stroke-width:1.0;"/><text fill="#000000" font-family="sans-serif" font-size="14" lengthAdjust="spacing" textLength="88.1221" x="42.5" y="120.9951">SparsePoly()</text><ellipse cx="33.5" cy="133.9453" fill="#84BE84" rx="3" ry="3" style="stroke:#038048;stroke-width:1.0;"/><text fill="#000000" font-family="sans-serif" font-size="14" lengthAdjust="spacing" textLength="133.5264" x="42.5" y="137.292">SparsePoly(int, int)</text><ellipse cx="33.5" cy="150.2422" fill="#84BE84" rx="3" ry="3" style="stroke:#038048;stroke-width:1.0;"/><text fill="#000000" font-family="sans-serif" font-size="14" lengthAdjust="spacing" textLength="91.3281" x="42.5" y="153.5889">coeff(int): int</text><ellipse cx="33.5" cy="166.5391" fill="#84BE84" rx="3" ry="3" style="stroke:#038048;stroke-width:1.0;"/><text fill="#000000" font-family="sans-serif" font-size="14" lengthAdjust="spacing" textLength="87.7119" x="42.5" y="169.8857">degree(): int</text><ellipse cx="33.5" cy="182.8359" fill="#84BE84" rx="3" ry="3" style="stroke:#038048;stroke-width:1.0;"/><text fill="#000000" font-family="sans-serif" font-size="14" lengthAdjust="spacing" textLength="200.8398" x="42.5" y="186.1826">add(SparsePoly): SparsePoly</text><ellipse cx="33.5" cy="199.1328" fill="#84BE84" rx="3" ry="3" style="stroke:#038048;stroke-width:1.0;"/><text fill="#000000" font-family="sans-serif" font-size="14" lengthAdjust="spacing" textLength="200.8877" x="42.5" y="202.4795">mul(SparsePoly): SparsePoly</text><ellipse cx="33.5" cy="215.4297" fill="#84BE84" rx="3" ry="3" style="stroke:#038048;stroke-width:1.0;"/><text fill="#000000" font-family="sans-serif" font-size="14" lengthAdjust="spacing" textLength="199.541" x="42.5" y="218.7764">sub(SparsePoly): SparsePoly</text><ellipse cx="33.5" cy="231.7266" fill="#84BE84" rx="3" ry="3" style="stroke:#038048;stroke-width:1.0;"/><text fill="#000000" font-family="sans-serif" font-size="14" lengthAdjust="spacing" textLength="139.8564" x="42.5" y="235.0732">minus(): SparsePoly</text></g></a><!--class SparsePoly.Term--><a href="SparsePoly.Term.html" target="_top" title="SparsePoly.Term.html" xlink:actuate="onRequest" xlink:href="SparsePoly.Term.html" xlink:show="new" xlink:title="SparsePoly.Term.html" xlink:type="simple"><g id="elem_SparsePoly.Term"><rect codeLine="19" fill="#F1F1F1" height="129.4844" id="SparsePoly.Term" rx="2.5" ry="2.5" style="stroke:#181818;stroke-width:0.5;" width="150.207" x="100" y="330"/><ellipse cx="115" cy="346" fill="#ADD1B2" rx="11" ry="11" style="stroke:#181818;stroke-width:1.0;"/><path d="M117.9688,351.6406 Q117.3906,351.9375 116.75,352.0781 Q116.1094,352.2344 115.4063,352.2344 Q112.9063,352.2344 111.5781,350.5938 Q110.2656,348.9375 110.2656,345.8125 Q110.2656,342.6875 111.5781,341.0313 Q112.9063,339.375 115.4063,339.375 Q116.1094,339.375 116.75,339.5313 Q117.4063,339.6875 117.9688,339.9844 L117.9688,342.7031 Q117.3438,342.125 116.75,341.8594 Q116.1563,341.5781 115.5313,341.5781 Q114.1875,341.5781 113.5,342.6563 Q112.8125,343.7188 112.8125,345.8125 Q112.8125,347.9063 113.5,348.9844 Q114.1875,350.0469 115.5313,350.0469 Q116.1563,350.0469 116.75,349.7813 Q117.3438,349.5 117.9688,348.9219 L117.9688,351.6406 Z " fill="#000000"/><text fill="#000000" font-family="sans-serif" font-size="14" lengthAdjust="spacing" textLength="118.207" x="129" y="350.8467">SparsePoly.Term</text><line style="stroke:#181818;stroke-width:0.5;" x1="101" x2="249.207" y1="362" y2="362"/><rect fill="none" height="6" style="stroke:#C82930;stroke-width:1.0;" width="6" x="108" y="372.6484"/><text fill="#000000" font-family="sans-serif" font-size="14" lengthAdjust="spacing" textLength="62.1523" x="120" y="378.9951">coeff: int</text><rect fill="none" height="6" style="stroke:#C82930;stroke-width:1.0;" width="6" x="108" y="388.9453"/><text fill="#000000" font-family="sans-serif" font-size="14" lengthAdjust="spacing" textLength="76.7881" x="120" y="395.292">degree: int</text><line style="stroke:#181818;stroke-width:0.5;" x1="101" x2="249.207" y1="402.5938" y2="402.5938"/><ellipse cx="111" cy="416.2422" fill="#84BE84" rx="3" ry="3" style="stroke:#038048;stroke-width:1.0;"/><text fill="#000000" font-family="sans-serif" font-size="14" lengthAdjust="spacing" textLength="92.8867" x="120" y="419.5889">Term(int, int)</text><ellipse cx="111" cy="432.5391" fill="#84BE84" rx="3" ry="3" style="stroke:#038048;stroke-width:1.0;"/><text fill="#000000" font-family="sans-serif" font-size="14" lengthAdjust="spacing" textLength="73.0762" x="120" y="435.8857">coeff(): int</text><ellipse cx="111" cy="448.8359" fill="#84BE84" rx="3" ry="3" style="stroke:#038048;stroke-width:1.0;"/><text fill="#000000" font-family="sans-serif" font-size="14" lengthAdjust="spacing" textLength="87.7119" x="120" y="452.1826">degree(): int</text></g></a><!--class Poly--><a href="Poly.html" target="_top" title="Poly.html" xlink:actuate="onRequest" xlink:href="Poly.html" xlink:show="new" xlink:title="Poly.html" xlink:type="simple"><g id="elem_Poly"><rect codeLine="27" fill="#F1F1F1" height="243.5625" id="Poly" rx="2.5" ry="2.5" style="stroke:#181818;stroke-width:0.5;" width="337.8213" x="388" y="31"/><ellipse cx="538.0693" cy="47" fill="#ADD1B2" rx="11" ry="11" style="stroke:#181818;stroke-width:1.0;"/><path d="M541.0381,52.6406 Q540.46,52.9375 539.8193,53.0781 Q539.1787,53.2344 538.4756,53.2344 Q535.9756,53.2344 534.6475,51.5938 Q533.335,49.9375 533.335,46.8125 Q533.335,43.6875 534.6475,42.0313 Q535.9756,40.375 538.4756,40.375 Q539.1787,40.375 539.8193,40.5313 Q540.4756,40.6875 541.0381,40.9844 L541.0381,43.7031 Q540.4131,43.125 539.8193,42.8594 Q539.2256,42.5781 538.6006,42.5781 Q537.2568,42.5781 536.5693,43.6563 Q535.8818,44.7188 535.8818,46.8125 Q535.8818,48.9063 536.5693,49.9844 Q537.2568,51.0469 538.6006,51.0469 Q539.2256,51.0469 539.8193,50.7813 Q540.4131,50.5 541.0381,49.9219 L541.0381,52.6406 Z " fill="#000000"/><text fill="#000000" font-family="sans-serif" font-size="14" lengthAdjust="spacing" textLength="29.1826" x="558.5693" y="51.8467">Poly</text><line style="stroke:#181818;stroke-width:0.5;" x1="389" x2="724.8213" y1="63" y2="63"/><rect fill="none" height="6" style="stroke:#C82930;stroke-width:1.0;" width="6" x="396" y="73.6484"/><text fill="#000000" font-family="sans-serif" font-size="14" lengthAdjust="spacing" textLength="79.1328" x="408" y="79.9951">terms: int[]</text><rect fill="none" height="6" style="stroke:#C82930;stroke-width:1.0;" width="6" x="396" y="89.9453"/><text fill="#000000" font-family="sans-serif" font-size="14" lengthAdjust="spacing" textLength="53.8057" x="408" y="96.292">deg: int</text><line style="stroke:#181818;stroke-width:0.5;" x1="389" x2="724.8213" y1="103.5938" y2="103.5938"/><ellipse cx="399" cy="117.2422" fill="#84BE84" rx="3" ry="3" style="stroke:#038048;stroke-width:1.0;"/><text fill="#000000" font-family="sans-serif" font-size="14" lengthAdjust="spacing" textLength="40.1064" x="408" y="120.5889">Poly()</text><ellipse cx="399" cy="133.5391" fill="#84BE84" rx="3" ry="3" style="stroke:#038048;stroke-width:1.0;"/><text fill="#000000" font-family="sans-serif" font-size="14" lengthAdjust="spacing" textLength="85.5107" x="408" y="136.8857">Poly(int, int)</text><rect fill="#F24D5C" height="6" style="stroke:#C82930;stroke-width:1.0;" width="6" x="396" y="146.8359"/><text fill="#000000" font-family="sans-serif" font-size="14" lengthAdjust="spacing" textLength="58.3584" x="408" y="153.1826">Poly(int)</text><ellipse cx="399" cy="166.1328" fill="#84BE84" rx="3" ry="3" style="stroke:#038048;stroke-width:1.0;"/><text fill="#000000" font-family="sans-serif" font-size="14" lengthAdjust="spacing" text-decoration="underline" textLength="311.8213" x="408" y="169.4795">monomialWithCoeffAndDegree(int, int): Poly</text><ellipse cx="399" cy="182.4297" fill="#84BE84" rx="3" ry="3" style="stroke:#038048;stroke-width:1.0;"/><text fill="#000000" font-family="sans-serif" font-size="14" lengthAdjust="spacing" textLength="87.7119" x="408" y="185.7764">degree(): int</text><ellipse cx="399" cy="198.7266" fill="#84BE84" rx="3" ry="3" style="stroke:#038048;stroke-width:1.0;"/><text fill="#000000" font-family="sans-serif" font-size="14" lengthAdjust="spacing" textLength="91.3281" x="408" y="202.0732">coeff(int): int</text><ellipse cx="399" cy="215.0234" fill="#84BE84" rx="3" ry="3" style="stroke:#038048;stroke-width:1.0;"/><text fill="#000000" font-family="sans-serif" font-size="14" lengthAdjust="spacing" textLength="104.8086" x="408" y="218.3701">add(Poly): Poly</text><ellipse cx="399" cy="231.3203" fill="#84BE84" rx="3" ry="3" style="stroke:#038048;stroke-width:1.0;"/><text fill="#000000" font-family="sans-serif" font-size="14" lengthAdjust="spacing" textLength="104.8564" x="408" y="234.667">mul(Poly): Poly</text><ellipse cx="399" cy="247.6172" fill="#84BE84" rx="3" ry="3" style="stroke:#038048;stroke-width:1.0;"/><text fill="#000000" font-family="sans-serif" font-size="14" lengthAdjust="spacing" textLength="103.5098" x="408" y="250.9639">sub(Poly): Poly</text><ellipse cx="399" cy="263.9141" fill="#84BE84" rx="3" ry="3" style="stroke:#038048;stroke-width:1.0;"/><text fill="#000000" font-family="sans-serif" font-size="14" lengthAdjust="spacing" textLength="91.8408" x="408" y="267.2607">minus(): Poly</text></g></a><!--class SparsePolyClient--><a href="SparsePolyClient.html" target="_top" title="SparsePolyClient.html" xlink:actuate="onRequest" xlink:href="SparsePolyClient.html" xlink:show="new" xlink:title="SparsePolyClient.html" xlink:type="simple"><g id="elem_SparsePolyClient"><rect codeLine="42" fill="#F1F1F1" height="48" id="SparsePolyClient" rx="2.5" ry="2.5" style="stroke:#181818;stroke-width:0.5;" width="149.7285" x="268" y="370.5"/><ellipse cx="283" cy="386.5" fill="#ADD1B2" rx="11" ry="11" style="stroke:#181818;stroke-width:1.0;"/><path d="M285.9688,392.1406 Q285.3906,392.4375 284.75,392.5781 Q284.1094,392.7344 283.4063,392.7344 Q280.9063,392.7344 279.5781,391.0938 Q278.2656,389.4375 278.2656,386.3125 Q278.2656,383.1875 279.5781,381.5313 Q280.9063,379.875 283.4063,379.875 Q284.1094,379.875 284.75,380.0313 Q285.4063,380.1875 285.9688,380.4844 L285.9688,383.2031 Q285.3438,382.625 284.75,382.3594 Q284.1563,382.0781 283.5313,382.0781 Q282.1875,382.0781 281.5,383.1563 Q280.8125,384.2188 280.8125,386.3125 Q280.8125,388.4063 281.5,389.4844 Q282.1875,390.5469 283.5313,390.5469 Q284.1563,390.5469 284.75,390.2813 Q285.3438,390 285.9688,389.4219 L285.9688,392.1406 Z " fill="#000000"/><text fill="#000000" font-family="sans-serif" font-size="14" lengthAdjust="spacing" textLength="117.7285" x="297" y="391.3467">SparsePolyClient</text><line style="stroke:#181818;stroke-width:0.5;" x1="269" x2="416.7285" y1="402.5" y2="402.5"/><line style="stroke:#181818;stroke-width:0.5;" x1="269" x2="416.7285" y1="410.5" y2="410.5"/></g></a><!--class Record--><a href="https://docs.oracle.com/en/java/javase/17/docs/api/java.base/java/lang/Record.html?is-external=true" target="_top" title="https://docs.oracle.com/en/java/javase/17/docs/api/java.base/java/lang/Record.html?is-external=true" xlink:actuate="onRequest" xlink:href="https://docs.oracle.com/en/java/javase/17/docs/api/java.base/java/lang/Record.html?is-external=true" xlink:show="new" xlink:title="https://docs.oracle.com/en/java/javase/17/docs/api/java.base/java/lang/Record.html?is-external=true" xlink:type="simple"><g id="elem_Record"><rect codeLine="47" fill="#F1F1F1" height="48" id="Record" rx="2.5" ry="2.5" style="stroke:#181818;stroke-width:0.5;" width="81.2461" x="750.5" y="129"/><ellipse cx="765.5" cy="145" fill="#A9DCDF" rx="11" ry="11" style="stroke:#181818;stroke-width:1.0;"/><path d="M765.6094,140.3438 L764.4531,145.4219 L766.7813,145.4219 L765.6094,140.3438 Z M764.125,138.1094 L767.1094,138.1094 L770.4688,150.5 L768.0156,150.5 L767.25,147.4375 L763.9688,147.4375 L763.2188,150.5 L760.7813,150.5 L764.125,138.1094 Z " fill="#000000"/><text fill="#000000" font-family="sans-serif" font-size="14" font-style="italic" lengthAdjust="spacing" textLength="49.2461" x="779.5" y="149.8467">Record</text><line style="stroke:#181818;stroke-width:0.5;" x1="751.5" x2="830.7461" y1="161" y2="161"/><line style="stroke:#181818;stroke-width:0.5;" x1="751.5" x2="830.7461" y1="169" y2="169"/></g></a><polygon fill="#181818" points="138.6028,329.6423,139.0977,319.8058,136.8043,324.9769,131.6332,322.6835,138.6028,329.6423" style="stroke:#181818;stroke-width:1.0;"/><path d="M126.3949,242.2119 C126.0429,265.1874 127.6008,289.7367 133,312 C134.4256,317.8783 134.1951,318.2089 136.4446,324.0439 " fill="none" style="stroke:#181818;stroke-width:1.0;"/><text fill="#000000" font-family="sans-serif" font-size="13" lengthAdjust="spacing" textLength="37.8765" x="135" y="307.0669">terms</text><text fill="#000000" font-family="sans-serif" font-size="13" lengthAdjust="spacing" textLength="6.5" x="131.6028" y="325.7091">*</text><polygon fill="none" points="787.7845,177.4549,778.6144,194.0655,790.4147,196.2454,787.7845,177.4549" style="stroke:#181818;stroke-width:1.0;"/><path d="M784.5145,195.1554 C779.3261,223.2409 769.5458,251.7016 738,275 C565.6277,402.3067 457.9369,250.355 259,330 C256.0299,331.1891 253.0734,332.5123 250.1424,333.9458 " fill="none" style="stroke:#181818;stroke-width:1.0;"/><ellipse cx="165.729" cy="250.0313" fill="#FFFFFF" rx="8" ry="8" style="stroke:#181818;stroke-width:1.0;"/><line style="stroke:#181818;stroke-width:1.0;" x1="167.6856" x2="163.7725" y1="257.7884" y2="242.2743"/><line style="stroke:#181818;stroke-width:1.0;" x1="157.9719" x2="173.4861" y1="251.9879" y2="248.0748"/><path d="M167.6856,257.7884 C171.8957,274.48 171.6875,276.3986 174,293 C175.649,304.8381 176.4871,317.5366 176.8303,329.7874 " fill="none" style="stroke:#181818;stroke-width:1.0;"/><text fill="#888888" font-family="sans-serif" font-size="10" lengthAdjust="spacing" textLength="3.1787" x="413.9106" y="478.2822">&#160;</text><text fill="#888888" font-family="sans-serif" font-size="10" lengthAdjust="spacing" textLength="183.0908" x="323.9546" y="489.9229">UMLDoclet 2.2.0, PlantUML 1.2024.6</text><!--SRC=[bLJBRjim4BpdAxO12iXDHAM-517wG94SMo3e0pquEgobjSoM8WMI2Xga_lUIj69PjkIgEaZWxcXsTpWa0C2BMcDP8GXyL8q5Kv55YMSk0uRScchKQ9M6D3qBqHhpNrWISCiQoIlE2ivghSevewjhUDg2_9CBD0Rkb7Yy4PoaXSMYMx2rhKIM7QA_kcg6FCoXkqMBTkomzrnqW6Wsck7INe9x7I1oHQkLJyvId-qd2oerKJIKmgA8EdQ7w1PzODM8QK3JB2SoSjcOQ1Ym6LUIVIDTzUNqaM5Duw3ByTpnLf81GJpNQP6dAxmPSa_hcv5-hIjl0iiYE-fueF2GMqxu97xEzSDFngBb-SPjYfAguYX-SBk-yUD-bCNjThWTOmh7ctd2OYUjwVtN-cJOSwD9xxFnFv-zDTLLkpDz6EgTx4t_plY93yW4od9l5t5fhCRSjXM-KAvquNZNrjOcJP92vOOfXn34SbKb91DF4rw6ajTl0YB1ceSGM_feGFX2oPOlDFM1cvX-EyD85E-iRYZBzfiSlD3ITEzAYkFtSFxg_D_8SC1I2DuCtBl1qxGTyEsVE9v8DB6xY_yZpDrUaOQLKlvpBxz__dIhdCWMvcpEhYxXplLhNHHUFf0sNCbezXS0]--></g></svg>