<svg xmlns="http://www.w3.org/2000/svg" xmlns:xlink="http://www.w3.org/1999/xlink" contentStyleType="text/css" height="312px" preserveAspectRatio="none" style="width:239px;height:312px;background:#FFFFFF;" version="1.1" viewBox="0 0 239 312" width="239px" zoomAndPan="magnify"><defs/><g><!--class it.unimi.di.prog2.e09.SparsePoly--><a href="SparsePoly.html" target="_top" title="SparsePoly.html" xlink:actuate="onRequest" xlink:href="SparsePoly.html" xlink:show="new" xlink:title="SparsePoly.html" xlink:type="simple"><g id="elem_it.unimi.di.prog2.e09.SparsePoly"><rect codeLine="7" fill="#F1F1F1" height="200.6094" id="it.unimi.di.prog2.e09.SparsePoly" rx="2.5" ry="2.5" style="stroke:#181818;stroke-width:0.5;" width="226.8877" x="6" y="12"/><ellipse cx="62.855" cy="30.9688" fill="#ADD1B2" rx="11" ry="11" style="stroke:#181818;stroke-width:1.0;"/><path d="M65.8237,36.6094 Q65.2456,36.9063 64.605,37.0469 Q63.9644,37.2031 63.2612,37.2031 Q60.7612,37.2031 59.4331,35.5625 Q58.1206,33.9063 58.1206,30.7813 Q58.1206,27.6563 59.4331,26 Q60.7612,24.3438 63.2612,24.3438 Q63.9644,24.3438 64.605,24.5 Q65.2612,24.6563 65.8237,24.9531 L65.8237,27.6719 Q65.1987,27.0938 64.605,26.8281 Q64.0112,26.5469 63.3862,26.5469 Q62.0425,26.5469 61.355,27.625 Q60.6675,28.6875 60.6675,30.7813 Q60.6675,32.875 61.355,33.9531 Q62.0425,35.0156 63.3862,35.0156 Q64.0112,35.0156 64.605,34.75 Q65.1987,34.4688 65.8237,33.8906 L65.8237,36.6094 Z " fill="#000000"/><text fill="#000000" font-family="sans-serif" font-size="14" lengthAdjust="spacing" textLength="77.1982" x="97.0947" y="29.9951">SparsePoly</text><text fill="#000000" font-family="sans-serif" font-size="10" lengthAdjust="spacing" textLength="104.6777" x="83.355" y="42.5791">it.unimi.di.prog2.e09</text><line style="stroke:#181818;stroke-width:0.5;" x1="7" x2="231.8877" y1="49.9375" y2="49.9375"/><rect fill="none" height="6" style="stroke:#C82930;stroke-width:1.0;" width="6" x="14" y="60.5859"/><text fill="#000000" font-family="sans-serif" font-size="14" lengthAdjust="spacing" textLength="134.4492" x="26" y="66.9326">terms: List&lt;Term&gt;</text><line style="stroke:#181818;stroke-width:0.5;" x1="7" x2="231.8877" y1="74.2344" y2="74.2344"/><ellipse cx="17" cy="87.8828" fill="#84BE84" rx="3" ry="3" style="stroke:#038048;stroke-width:1.0;"/><text fill="#000000" font-family="sans-serif" font-size="14" lengthAdjust="spacing" textLength="88.1221" x="26" y="91.2295">SparsePoly()</text><ellipse cx="17" cy="104.1797" fill="#84BE84" rx="3" ry="3" style="stroke:#038048;stroke-width:1.0;"/><text fill="#000000" font-family="sans-serif" font-size="14" lengthAdjust="spacing" textLength="133.5264" x="26" y="107.5264">SparsePoly(int, int)</text><ellipse cx="17" cy="120.4766" fill="#84BE84" rx="3" ry="3" style="stroke:#038048;stroke-width:1.0;"/><text fill="#000000" font-family="sans-serif" font-size="14" lengthAdjust="spacing" textLength="91.3281" x="26" y="123.8232">coeff(int): int</text><ellipse cx="17" cy="136.7734" fill="#84BE84" rx="3" ry="3" style="stroke:#038048;stroke-width:1.0;"/><text fill="#000000" font-family="sans-serif" font-size="14" lengthAdjust="spacing" textLength="87.7119" x="26" y="140.1201">degree(): int</text><ellipse cx="17" cy="153.0703" fill="#84BE84" rx="3" ry="3" style="stroke:#038048;stroke-width:1.0;"/><text fill="#000000" font-family="sans-serif" font-size="14" lengthAdjust="spacing" textLength="200.8398" x="26" y="156.417">add(SparsePoly): SparsePoly</text><ellipse cx="17" cy="169.3672" fill="#84BE84" rx="3" ry="3" style="stroke:#038048;stroke-width:1.0;"/><text fill="#000000" font-family="sans-serif" font-size="14" lengthAdjust="spacing" textLength="200.8877" x="26" y="172.7139">mul(SparsePoly): SparsePoly</text><ellipse cx="17" cy="185.6641" fill="#84BE84" rx="3" ry="3" style="stroke:#038048;stroke-width:1.0;"/><text fill="#000000" font-family="sans-serif" font-size="14" lengthAdjust="spacing" textLength="199.541" x="26" y="189.0107">sub(SparsePoly): SparsePoly</text><ellipse cx="17" cy="201.9609" fill="#84BE84" rx="3" ry="3" style="stroke:#038048;stroke-width:1.0;"/><text fill="#000000" font-family="sans-serif" font-size="14" lengthAdjust="spacing" textLength="139.8564" x="26" y="205.3076">minus(): SparsePoly</text></g></a><!--class it.unimi.di.prog2.e09.SparsePoly.Term--><a href="SparsePoly.Term.html" target="_top" title="SparsePoly.Term.html" xlink:actuate="onRequest" xlink:href="SparsePoly.Term.html" xlink:show="new" xlink:title="SparsePoly.Term.html" xlink:type="simple"><g id="elem_it.unimi.di.prog2.e09.SparsePoly.Term"><rect codeLine="18" fill="#F1F1F1" height="37.9375" id="it.unimi.di.prog2.e09.SparsePoly.Term" rx="2.5" ry="2.5" style="stroke:#181818;stroke-width:0.5;" width="150.207" x="44.5" y="249"/><ellipse cx="59.5" cy="267.9688" fill="#ADD1B2" rx="11" ry="11" style="stroke:#181818;stroke-width:1.0;"/><path d="M62.4688,273.6094 Q61.8906,273.9063 61.25,274.0469 Q60.6094,274.2031 59.9063,274.2031 Q57.4063,274.2031 56.0781,272.5625 Q54.7656,270.9063 54.7656,267.7813 Q54.7656,264.6563 56.0781,263 Q57.4063,261.3438 59.9063,261.3438 Q60.6094,261.3438 61.25,261.5 Q61.9063,261.6563 62.4688,261.9531 L62.4688,264.6719 Q61.8438,264.0938 61.25,263.8281 Q60.6563,263.5469 60.0313,263.5469 Q58.6875,263.5469 58,264.625 Q57.3125,265.6875 57.3125,267.7813 Q57.3125,269.875 58,270.9531 Q58.6875,272.0156 60.0313,272.0156 Q60.6563,272.0156 61.25,271.75 Q61.8438,271.4688 62.4688,270.8906 L62.4688,273.6094 Z " fill="#000000"/><text fill="#000000" font-family="sans-serif" font-size="14" lengthAdjust="spacing" textLength="118.207" x="73.5" y="266.9951">SparsePoly.Term</text><text fill="#000000" font-family="sans-serif" font-size="10" lengthAdjust="spacing" textLength="104.6777" x="80.2646" y="279.5791">it.unimi.di.prog2.e09</text></g></a><ellipse cx="119.5" cy="221.3131" fill="#FFFFFF" rx="8" ry="8" style="stroke:#181818;stroke-width:1.0;"/><line style="stroke:#181818;stroke-width:1.0;" x1="119.5" x2="119.5" y1="229.3131" y2="213.3131"/><line style="stroke:#181818;stroke-width:1.0;" x1="111.5" x2="127.5" y1="221.3131" y2="221.3131"/><path d="M119.5,229.3131 C119.5,242.8271 119.5,239.2893 119.5,248.7982 " fill="none" style="stroke:#181818;stroke-width:1.0;"/><text fill="#888888" font-family="sans-serif" font-size="10" lengthAdjust="spacing" textLength="3.1787" x="114.4106" y="290.2822">&#160;</text><text fill="#888888" font-family="sans-serif" font-size="10" lengthAdjust="spacing" textLength="183.0908" x="24.4546" y="301.9229">UMLDoclet 2.2.0, PlantUML 1.2024.6</text><!--SRC=[hP9BQm8n58Nt_efReJ236gnqKn5NNLeGR5VgudRcZWRo678p1LlwtvkCqhHM61VD8e_ptPoGd000tDGETnf1uS4s7bYJHuEzNa30vC6W9gwne1NLwD1R1yOQQlbUbWIaQt-0If8g-LmDPdiRv5Ol5393VyRodQPtz_DLy6DQMdNOc9Cudail6YEr5AKKjRExYQ3nGn-GuI8HoGJMwxGGUw_LTWiVxScnZJmvpLDOIFQpvp2VVwD1sfVb5rLf_112zuCMbgegWdmQIG8bxHnHTYvZMMR9CT2qI4MwKTr5tBnUuIHDmzbV-DaHXOXFyozvj4w_GudAAPdZb-ZCT30QNNVGyLfaGifGMHk7ZNbvMZpQGeLVF14JCHx2Kg7nGONRDt8ihSdoBm00]--></g></svg>